<svg width="157" height="158" viewBox="0 0 157 158" fill="none" xmlns="http://www.w3.org/2000/svg">
<path d="M45.4949 28.4198L44.4238 29.0312C44.4028 29.0485 44.378 29.0608 44.3515 29.0669C44.3249 29.0731 44.2973 29.073 44.2708 29.0666C44.2443 29.0602 44.2197 29.0477 44.1988 29.0302C44.178 29.0126 44.1615 28.9904 44.1507 28.9654L42.6717 26.3724C42.6544 26.3501 42.6425 26.3242 42.637 26.2965C42.6315 26.2689 42.6325 26.2404 42.64 26.2132C42.6475 26.186 42.6612 26.161 42.68 26.1401C42.6989 26.1191 42.7224 26.1029 42.7486 26.0926L43.0462 25.9226C43.1681 25.763 43.2537 25.5786 43.2968 25.3824C43.3399 25.1862 43.3396 24.983 43.2959 24.7869C43.1478 23.9817 42.9042 23.1971 42.5703 22.4497C42.1479 21.4031 41.4784 19.948 40.5618 18.0845C40.5449 18.0602 40.5336 18.0325 40.5285 18.0034C40.5235 17.9743 40.5249 17.9444 40.5327 17.9159C40.5404 17.8873 40.5543 17.8608 40.5734 17.8383C40.5925 17.8157 40.6163 17.7976 40.6432 17.7852L45.3545 15.0986C45.3767 15.0813 45.4026 15.0693 45.4303 15.0638C45.4579 15.0583 45.4865 15.0593 45.5137 15.0668C45.5408 15.0742 45.5659 15.088 45.5868 15.1069C45.6078 15.1257 45.624 15.1493 45.6342 15.1755L49.6243 22.1711L50.2663 21.8044C50.2886 21.787 50.3146 21.7751 50.3423 21.7696C50.37 21.764 50.3986 21.765 50.4259 21.7724C50.4531 21.7798 50.4782 21.7934 50.4993 21.8122C50.5204 21.8311 50.5368 21.8545 50.5472 21.8807L52.0262 24.4742C52.0422 24.4964 52.0529 24.5219 52.0573 24.5489C52.0617 24.5758 52.0597 24.6034 52.0516 24.6295C52.0435 24.6555 52.0294 24.6793 52.0105 24.699C51.9916 24.7187 51.9684 24.7337 51.9426 24.7429L50.8727 25.3536C50.8516 25.371 50.8268 25.3833 50.8002 25.3895C50.7736 25.3957 50.7459 25.3956 50.7193 25.3893C50.6928 25.383 50.668 25.3706 50.647 25.3531C50.6261 25.3356 50.6094 25.3135 50.5985 25.2884L49.7781 23.849L44.7448 26.7196L45.5662 28.1585C45.5823 28.1792 45.5934 28.2034 45.5985 28.2292C45.6036 28.255 45.6027 28.2816 45.5958 28.3069C45.5889 28.3323 45.5762 28.3557 45.5587 28.3753C45.5411 28.3949 45.5193 28.4101 45.4949 28.4198ZM42.6093 18.4138C43.4675 20.1007 44.0868 21.4348 44.4673 22.4162C44.8008 23.171 44.9808 23.9847 44.9967 24.8097L48.1732 22.998L44.8339 17.1455L42.6093 18.4138Z" fill="white"/>
<path d="M52.4443 18.0074L53.4463 20.5274L57.5312 18.9007C57.6593 18.8511 57.7463 18.884 57.792 19.0038L58.2033 20.0348C58.2173 20.0591 58.2255 20.0863 58.2272 20.1143C58.2288 20.1423 58.224 20.1704 58.213 20.1962C58.2019 20.222 58.185 20.2448 58.1636 20.263C58.1422 20.2811 58.1168 20.294 58.0896 20.3006L52.6416 22.469C52.6174 22.4814 52.5906 22.4881 52.5634 22.4885C52.5362 22.4889 52.5092 22.483 52.4846 22.4713C52.4601 22.4596 52.4385 22.4424 52.4217 22.421C52.4048 22.3997 52.3931 22.3747 52.3875 22.3481L48.9201 13.6311C48.9058 13.6078 48.8972 13.5816 48.8948 13.5545C48.8924 13.5273 48.8963 13.5 48.9062 13.4746C48.9162 13.4492 48.9319 13.4265 48.952 13.4082C48.9722 13.3899 48.9964 13.3765 49.0226 13.3691L54.29 11.2743C54.3144 11.2599 54.3418 11.2515 54.37 11.2496C54.3983 11.2478 54.4266 11.2527 54.4526 11.2638C54.4787 11.2749 54.5017 11.292 54.5199 11.3137C54.5382 11.3353 54.551 11.361 54.5575 11.3886L54.9677 12.4195C55.0156 12.5382 54.9755 12.6218 54.8473 12.6736L50.9419 14.2274L51.887 16.6075L55.4636 15.1842C55.4881 15.1704 55.5154 15.1625 55.5435 15.161C55.5715 15.1595 55.5995 15.1645 55.6253 15.1756C55.6511 15.1867 55.6739 15.2036 55.6921 15.225C55.7103 15.2464 55.7233 15.2717 55.73 15.299L56.1346 16.3183C56.1488 16.3426 56.157 16.3698 56.1588 16.3978C56.1605 16.4259 56.1556 16.4539 56.1446 16.4798C56.1335 16.5056 56.1166 16.5285 56.0951 16.5466C56.0737 16.5647 56.0482 16.5776 56.0209 16.5841L52.4443 18.0074Z" fill="white"/>
<path d="M63.6359 12.9043L62.7063 9.14094C62.6951 9.116 62.6898 9.08877 62.691 9.06144C62.6922 9.03411 62.6997 9.00743 62.713 8.98354C62.7264 8.95965 62.7451 8.93921 62.7677 8.92385C62.7904 8.9085 62.8163 8.89866 62.8434 8.89512L64.0661 8.59307C64.1909 8.56243 64.2689 8.61368 64.3024 8.74688L66.5516 17.8551C66.5624 17.8801 66.5673 17.9073 66.5658 17.9345C66.5644 17.9617 66.5567 17.9882 66.5433 18.012C66.5299 18.0357 66.5112 18.056 66.4887 18.0714C66.4662 18.0867 66.4404 18.0966 66.4134 18.1003L65.1907 18.4023C65.1651 18.4115 65.1378 18.4147 65.1107 18.4115C65.0837 18.4083 65.0578 18.399 65.0351 18.3841C65.0123 18.3693 64.9932 18.3494 64.9795 18.3259C64.9657 18.3025 64.9575 18.2762 64.9555 18.2491L64.0004 14.3793L60.251 15.305L61.2061 19.1753C61.2171 19.2003 61.2222 19.2275 61.2208 19.2548C61.2195 19.2821 61.2118 19.3087 61.1984 19.3325C61.185 19.3563 61.1662 19.3766 61.1436 19.3919C61.1209 19.4072 61.095 19.417 61.068 19.4205L59.8453 19.722C59.7215 19.7532 59.6435 19.7014 59.6101 19.5682L57.3609 10.4606C57.3498 10.4357 57.3446 10.4085 57.3459 10.3813C57.3471 10.354 57.3547 10.3274 57.368 10.3036C57.3813 10.2798 57.4 10.2595 57.4226 10.2441C57.4451 10.2288 57.4709 10.219 57.498 10.2154L58.7206 9.91333C58.8455 9.88267 58.9235 9.93394 58.9569 10.0666L59.8854 13.8299L63.6359 12.9043Z" fill="white"/>
<path d="M72.1451 17.3815L68.7111 17.7321C68.5829 17.7449 68.5127 17.683 68.4994 17.5471L67.5464 8.21426C67.533 8.07716 67.5899 8.00305 67.7158 7.99025L68.9842 7.86042C69.1113 7.84816 69.1815 7.90945 69.196 8.04599L69.5192 11.2063L71.4117 11.0135C72.3259 10.8649 73.2623 11.0697 74.0309 11.5864C74.3718 11.8518 74.6512 12.1878 74.8497 12.5715C75.0483 12.9552 75.1614 13.3773 75.1812 13.8088C75.2494 14.242 75.2268 14.6846 75.1147 15.1086C75.0027 15.5326 74.8036 15.9286 74.5303 16.2714C73.9135 16.9426 73.0557 17.3418 72.1451 17.3815V17.3815ZM69.6752 12.7466L70.0118 16.044L71.9735 15.8434C72.2054 15.8517 72.4361 15.806 72.6473 15.7098C72.8585 15.6136 73.0444 15.4696 73.1904 15.2891C73.3363 15.1087 73.4383 14.8967 73.4883 14.6701C73.5382 14.4434 73.5347 14.2083 73.4781 13.9832C73.4823 13.7568 73.4338 13.5325 73.3364 13.328C73.239 13.1235 73.0954 12.9445 72.9169 12.8051C72.7384 12.6657 72.53 12.5697 72.308 12.5248C72.086 12.4798 71.8566 12.4871 71.638 12.546L69.6752 12.7466Z" fill="white"/>
<path d="M80.6814 17.1339L79.4119 17.0342C79.2849 17.0241 79.2257 16.9517 79.2369 16.814L79.9681 7.46111C79.9781 7.32513 80.0483 7.26105 80.1754 7.27163L86.9486 7.80161C86.9766 7.79984 87.0047 7.80462 87.0306 7.81556C87.0565 7.82651 87.0795 7.84332 87.0977 7.86467C87.116 7.88602 87.129 7.91132 87.1359 7.93858C87.1427 7.96584 87.143 7.99431 87.137 8.02174L86.4047 17.3757C86.4065 17.4038 86.4018 17.432 86.3908 17.4579C86.3799 17.4839 86.363 17.5069 86.3416 17.5252C86.3202 17.5435 86.2948 17.5566 86.2674 17.5633C86.24 17.57 86.2115 17.5703 86.184 17.5641L84.9279 17.466C84.8008 17.4554 84.7417 17.383 84.7529 17.2459L85.3815 9.20373L81.5185 8.90175L80.8887 16.9444C80.8787 17.0799 80.8096 17.1439 80.6814 17.1339Z" fill="white"/>
<path d="M96.3045 15.96C96.2205 16.4652 96.0344 16.948 95.7577 17.3789C95.481 17.8099 95.1195 18.18 94.6951 18.4667C93.7695 18.9242 92.7146 19.049 91.7078 18.8202C90.701 18.5913 89.8037 18.0227 89.1669 17.21C88.9078 16.7682 88.7414 16.2783 88.678 15.7701C88.6146 15.2619 88.6554 14.7461 88.798 14.2542L89.3575 11.7965C89.4407 11.2924 89.6261 10.8106 89.9023 10.3807C90.1785 9.95079 90.5396 9.58187 90.9636 9.29658C91.8902 8.84356 92.944 8.72119 93.9499 8.94979C94.9557 9.17839 95.8531 9.74421 96.4929 10.5533C96.7523 10.9935 96.919 11.4822 96.9826 11.9893C97.0463 12.4964 97.0055 13.0111 96.8629 13.5018L96.3045 15.96ZM90.4408 14.6275C90.2649 15.2101 90.3241 15.8385 90.6058 16.378C90.9683 16.8417 91.4798 17.1662 92.0538 17.2967C92.6278 17.4272 93.2293 17.3556 93.7566 17.0941C94.2434 16.7289 94.5682 16.1879 94.6617 15.5866L95.2178 13.1418C95.2947 12.8598 95.3136 12.5651 95.2736 12.2756C95.2335 11.986 95.1353 11.7076 94.9848 11.457C94.8343 11.2064 94.6346 10.9888 94.3979 10.8174C94.1611 10.646 93.8921 10.5243 93.607 10.4595C93.322 10.3948 93.0268 10.3885 92.7392 10.4408C92.4516 10.4932 92.1776 10.6032 91.9336 10.7642C91.6897 10.9253 91.4809 11.134 91.3197 11.3779C91.1585 11.6217 91.0484 11.8957 90.9959 12.1833L90.4408 14.6275Z" fill="white"/>
<path d="M100.093 17.8967C99.6806 18.669 99.0587 19.3095 98.2988 19.7446C97.6316 20.0171 96.8836 20.0149 96.218 19.7385C96.1913 19.7332 96.1661 19.7219 96.1445 19.7053C96.123 19.6887 96.1055 19.6674 96.0935 19.6429C96.0816 19.6185 96.0754 19.5916 96.0755 19.5644C96.0757 19.5372 96.0821 19.5104 96.0943 19.486L96.5022 18.425C96.5075 18.3982 96.5188 18.373 96.5355 18.3513C96.5521 18.3297 96.5735 18.3122 96.598 18.3002C96.6225 18.2882 96.6495 18.2821 96.6767 18.2823C96.704 18.2824 96.7309 18.2889 96.7552 18.3013C96.9206 18.3644 97.0984 18.3881 97.2745 18.3704C97.4505 18.3527 97.6201 18.2941 97.7695 18.1993C98.1895 17.8504 98.5393 17.4249 98.8005 16.9454C99.7849 15.1591 100.66 13.3146 101.421 11.4222C101.427 11.3948 101.439 11.3692 101.457 11.3475C101.475 11.3258 101.498 11.3085 101.523 11.2971C101.549 11.2856 101.577 11.2804 101.605 11.2817C101.633 11.283 101.66 11.2908 101.685 11.3046L106.916 13.3125C106.942 13.3195 106.966 13.3325 106.987 13.3506C107.007 13.3686 107.023 13.3912 107.033 13.4165C107.043 13.4418 107.047 13.4691 107.045 13.4963C107.042 13.5234 107.034 13.5496 107.019 13.5727L103.658 22.331C103.653 22.3577 103.641 22.3829 103.625 22.4045C103.608 22.4261 103.587 22.4435 103.563 22.4555C103.538 22.4674 103.511 22.4735 103.484 22.4733C103.457 22.4731 103.43 22.4665 103.406 22.4541L102.229 22.0027C102.203 21.9956 102.178 21.9824 102.158 21.9643C102.138 21.9462 102.122 21.9236 102.112 21.8983C102.102 21.8731 102.097 21.8458 102.1 21.8187C102.102 21.7916 102.11 21.7653 102.124 21.7419L105.011 14.2237L102.427 13.2316C101.766 14.8421 100.985 16.4014 100.093 17.8967V17.8967Z" fill="white"/>
<path d="M108.207 17.3722C108.396 16.9842 108.666 16.6414 109 16.3673C109.333 16.0931 109.721 15.894 110.139 15.7834C111.042 15.6112 111.977 15.7915 112.752 16.2871L115.764 17.9712C115.79 17.9813 115.814 17.9973 115.833 18.0181C115.852 18.0388 115.866 18.0637 115.874 18.0908C115.881 18.1179 115.883 18.1464 115.878 18.1741C115.872 18.2018 115.861 18.2279 115.844 18.2504L111.265 26.4397C111.255 26.466 111.239 26.4895 111.219 26.5086C111.198 26.5276 111.173 26.5415 111.146 26.5492C111.119 26.557 111.09 26.5583 111.063 26.5531C111.035 26.5479 111.009 26.5364 110.987 26.5194L109.899 25.9108C109.873 25.9009 109.849 25.8848 109.83 25.864C109.811 25.8432 109.797 25.8181 109.789 25.7909C109.782 25.7638 109.781 25.7352 109.786 25.7075C109.792 25.6798 109.803 25.6538 109.821 25.6316L111.444 22.7259L110.129 21.9913L106.464 23.8333C106.421 23.8593 106.372 23.873 106.322 23.8729C106.272 23.8728 106.223 23.8589 106.181 23.8327L104.794 23.0581C104.723 23.0174 104.685 22.9712 104.685 22.9177C104.683 22.8647 104.723 22.8196 104.808 22.7822L108.673 20.9739C108.196 20.5319 107.884 19.94 107.79 19.2964C107.711 18.6265 107.858 17.9493 108.207 17.3722V17.3722ZM110.45 20.4606L112.172 21.423L113.742 18.6138L112.021 17.6513C111.84 17.5017 111.626 17.3963 111.397 17.3434C111.168 17.2905 110.93 17.2916 110.702 17.3465C110.473 17.4014 110.261 17.5087 110.081 17.6598C109.901 17.811 109.758 18.0019 109.665 18.2176C109.152 19.1343 109.414 19.882 110.45 20.4606Z" fill="white"/>
<path d="M127.442 44.7757L126.796 43.7269C126.778 43.7066 126.764 43.6823 126.757 43.656C126.75 43.6297 126.749 43.6022 126.755 43.5755C126.76 43.5488 126.771 43.5237 126.788 43.5021C126.804 43.4805 126.826 43.4631 126.85 43.4511L129.392 41.8834C129.414 41.8656 129.44 41.853 129.467 41.8467C129.494 41.8404 129.523 41.8405 129.55 41.8471C129.578 41.8536 129.603 41.8664 129.625 41.8844C129.646 41.9024 129.663 41.9252 129.674 41.9509L129.854 42.2429C130.018 42.3595 130.205 42.4388 130.403 42.4753C130.601 42.5117 130.804 42.5045 130.999 42.4541C131.798 42.2782 132.574 42.0077 133.309 41.6483C134.341 41.1896 135.772 40.4705 137.602 39.491C137.626 39.4733 137.653 39.4609 137.682 39.4549C137.711 39.4489 137.741 39.4493 137.77 39.4562C137.799 39.463 137.826 39.4762 137.849 39.4946C137.872 39.5131 137.891 39.5364 137.904 39.5629L140.751 44.1795C140.769 44.2009 140.782 44.2263 140.789 44.2536C140.795 44.2809 140.795 44.3093 140.789 44.3367C140.782 44.364 140.77 44.3895 140.752 44.4111C140.734 44.4326 140.711 44.4497 140.685 44.4609L133.831 48.6884L134.219 49.3181C134.237 49.3399 134.249 49.3656 134.256 49.3931C134.262 49.4206 134.262 49.4492 134.255 49.4766C134.249 49.5041 134.236 49.5296 134.218 49.5513C134.199 49.5729 134.176 49.59 134.151 49.6013L131.61 51.1678C131.589 51.1846 131.564 51.196 131.537 51.2014C131.51 51.2067 131.482 51.2057 131.456 51.1985C131.43 51.1913 131.405 51.1781 131.385 51.1599C131.364 51.1417 131.349 51.119 131.338 51.0936L130.692 50.0449C130.674 50.0245 130.661 50.0002 130.654 49.9739C130.647 49.9476 130.646 49.92 130.651 49.8933C130.657 49.8666 130.668 49.8416 130.685 49.8201C130.702 49.7986 130.723 49.7813 130.748 49.7696L132.158 48.8991L129.117 43.9682L127.706 44.8387C127.686 44.8554 127.662 44.8672 127.636 44.8731C127.611 44.8791 127.584 44.879 127.558 44.8729C127.533 44.8668 127.509 44.8548 127.489 44.838C127.469 44.8211 127.453 44.7998 127.442 44.7757V44.7757ZM137.344 41.5496C135.688 42.4635 134.375 43.1278 133.407 43.5423C132.664 43.9018 131.857 44.1096 131.033 44.1537L132.952 47.2667L138.688 43.7296L137.344 41.5496Z" fill="white"/>
<path d="M138.104 51.3917L135.621 52.4795L137.385 56.5065C137.4 56.5292 137.41 56.5551 137.413 56.5821C137.416 56.6091 137.413 56.6365 137.405 56.6623C137.396 56.688 137.381 56.7113 137.361 56.7304C137.342 56.7494 137.318 56.7638 137.293 56.7723L136.276 57.217C136.252 57.2319 136.225 57.241 136.197 57.2437C136.169 57.2463 136.14 57.2423 136.114 57.2321C136.087 57.2219 136.064 57.2057 136.045 57.1848C136.026 57.1639 136.012 57.1389 136.004 57.1117L133.652 51.7417C133.639 51.7181 133.631 51.6916 133.63 51.6645C133.628 51.6373 133.633 51.6102 133.644 51.5852C133.655 51.5603 133.671 51.5382 133.692 51.5206C133.713 51.5031 133.737 51.4907 133.764 51.4843L142.357 47.7198C142.38 47.7046 142.406 47.695 142.433 47.6916C142.46 47.6882 142.487 47.6911 142.513 47.7002C142.539 47.7093 142.562 47.7243 142.581 47.7439C142.6 47.7636 142.614 47.7874 142.622 47.8134L144.898 53.0067C144.913 53.0308 144.922 53.058 144.925 53.0862C144.927 53.1143 144.923 53.1427 144.913 53.169C144.902 53.1953 144.886 53.2188 144.865 53.2377C144.844 53.2565 144.819 53.2702 144.791 53.2776L143.776 53.7228C143.752 53.7362 143.726 53.7439 143.699 53.7454C143.671 53.7468 143.644 53.742 143.619 53.7312C143.594 53.7204 143.572 53.7039 143.555 53.6831C143.537 53.6624 143.525 53.6378 143.518 53.6114L141.831 49.7595L139.485 50.7876L141.028 54.313C141.043 54.3369 141.053 54.3639 141.055 54.3919C141.058 54.4199 141.054 54.4482 141.044 54.4744C141.034 54.5007 141.018 54.5242 140.997 54.5431C140.976 54.562 140.951 54.5757 140.924 54.5833L139.921 55.0224C139.897 55.0374 139.87 55.0466 139.842 55.0493C139.813 55.0519 139.785 55.048 139.759 55.0378C139.732 55.0275 139.709 55.0113 139.69 54.9903C139.671 54.9694 139.657 54.9443 139.65 54.9171L138.104 51.3917Z" fill="white"/>
<path d="M143.577 62.3822L147.306 61.3228C147.331 61.3112 147.358 61.3055 147.385 61.306C147.412 61.3065 147.439 61.3133 147.463 61.3258C147.487 61.3383 147.508 61.3562 147.524 61.3781C147.54 61.4 147.551 61.4253 147.556 61.4521L147.899 62.6642C147.909 62.6894 147.913 62.7167 147.911 62.7438C147.909 62.771 147.901 62.7973 147.887 62.8206C147.873 62.8439 147.853 62.8636 147.83 62.8782C147.807 62.8927 147.781 62.9017 147.754 62.9044L138.728 65.4662C138.704 65.478 138.677 65.484 138.65 65.4836C138.623 65.4833 138.596 65.4767 138.572 65.4642C138.547 65.4518 138.526 65.434 138.51 65.4121C138.494 65.3902 138.483 65.3648 138.479 65.338L138.135 64.1254C138.1 64.0022 138.149 63.9225 138.28 63.8852L142.114 62.7963L141.06 59.082L137.226 60.1698C137.201 60.1818 137.174 60.1879 137.147 60.1876C137.12 60.1874 137.093 60.1807 137.068 60.1682C137.044 60.1557 137.023 60.1377 137.007 60.1157C136.99 60.0936 136.98 60.068 136.975 60.0411L136.631 58.829C136.597 58.7064 136.644 58.6261 136.778 58.5882L145.801 56.0275C145.826 56.0155 145.853 56.0093 145.88 56.0095C145.908 56.0097 145.935 56.0163 145.959 56.0288C145.983 56.0412 146.004 56.0592 146.021 56.0812C146.037 56.1032 146.048 56.1288 146.052 56.1557L146.397 57.3678C146.406 57.393 146.41 57.4202 146.408 57.4472C146.406 57.4742 146.397 57.5004 146.383 57.5236C146.369 57.5468 146.35 57.5665 146.327 57.5811C146.304 57.5957 146.279 57.6049 146.252 57.608L142.522 58.6663L143.577 62.3822Z" fill="white"/>
<path d="M139.392 71.0415L138.926 67.6214C138.908 67.4949 138.966 67.4225 139.104 67.4041L148.398 66.1314C148.534 66.1141 148.61 66.167 148.627 66.2941L148.8 67.5558C148.817 67.6828 148.759 67.7553 148.623 67.7737L145.474 68.205L145.732 70.0908C145.913 70.9991 145.741 71.9422 145.25 72.7279C144.997 73.0776 144.67 73.3683 144.294 73.5797C143.917 73.7912 143.499 73.9185 143.068 73.9528C142.638 74.0366 142.194 74.0296 141.767 73.9322C141.339 73.8348 140.937 73.6491 140.585 73.3872C139.893 72.7939 139.464 71.9504 139.392 71.0415V71.0415ZM143.942 68.4145L140.658 68.8643L140.926 70.8175C140.925 71.0497 140.979 71.2788 141.082 71.4866C141.185 71.6945 141.335 71.8755 141.521 72.0152C141.706 72.1549 141.922 72.2495 142.15 72.2915C142.378 72.3334 142.613 72.3216 142.836 72.257C143.063 72.2535 143.285 72.1974 143.486 72.093C143.687 71.9886 143.861 71.8389 143.995 71.6557C144.128 71.4725 144.217 71.2608 144.254 71.0374C144.291 70.8139 144.276 70.5849 144.209 70.3684L143.942 68.4145Z" fill="white"/>
<path d="M139.932 79.6L139.989 78.3272C139.994 78.1995 140.066 78.139 140.203 78.1455L149.574 78.563C149.712 78.5685 149.777 78.6354 149.772 78.7625L149.469 85.5496C149.472 85.5776 149.468 85.6059 149.458 85.6321C149.448 85.6584 149.432 85.6819 149.411 85.701C149.39 85.72 149.365 85.734 149.338 85.7419C149.311 85.7498 149.283 85.7513 149.255 85.7463L139.884 85.3278C139.856 85.3306 139.827 85.3269 139.801 85.3169C139.774 85.3069 139.751 85.2909 139.731 85.2702C139.712 85.2494 139.698 85.2245 139.69 85.1974C139.682 85.1703 139.681 85.1416 139.686 85.1138L139.742 83.8549C139.748 83.7267 139.819 83.6671 139.956 83.6727L148.016 84.0316L148.187 80.159L140.129 79.8007C139.992 79.7945 139.926 79.7276 139.932 79.6Z" fill="white"/>
<path d="M141.643 95.1498C141.136 95.0833 140.647 94.9141 140.207 94.6523C139.766 94.3905 139.384 94.0418 139.083 93.6273C138.595 92.7176 138.434 91.6674 138.629 90.6533C138.823 89.6392 139.361 88.7229 140.151 88.0584C140.584 87.785 141.068 87.6025 141.574 87.5221C142.079 87.4418 142.596 87.4651 143.092 87.5908L145.567 88.065C146.074 88.1315 146.562 88.3008 147.001 88.5625C147.44 88.8242 147.821 89.1728 148.121 89.5869C148.605 90.498 148.763 91.5471 148.568 92.56C148.374 93.573 147.838 94.489 147.051 95.1559C146.62 95.4301 146.138 95.6132 145.633 95.6939C145.129 95.7745 144.613 95.7511 144.118 95.6251L141.643 95.1498ZM142.776 89.2454C142.188 89.089 141.561 89.1692 141.032 89.4689C140.58 89.8465 140.272 90.3688 140.161 90.9472C140.05 91.5256 140.143 92.1246 140.423 92.6426C140.804 93.1172 141.356 93.4235 141.96 93.4958L144.421 93.9684C144.705 94.036 145.001 94.0453 145.289 93.9957C145.577 93.9461 145.852 93.8387 146.098 93.68C146.343 93.5212 146.554 93.3144 146.718 93.0719C146.881 92.8295 146.994 92.5565 147.049 92.2693C147.104 91.9821 147.1 91.6868 147.038 91.401C146.976 91.1153 146.857 90.8451 146.688 90.6067C146.518 90.3683 146.302 90.1667 146.053 90.0139C145.804 89.8612 145.526 89.7605 145.237 89.718L142.776 89.2454Z" fill="white"/>
<path d="M139.833 98.9896C139.046 98.6033 138.385 98.0032 137.923 97.2581C137.628 96.6005 137.605 95.8529 137.859 95.1783C137.863 95.1514 137.874 95.1259 137.89 95.1038C137.906 95.0816 137.926 95.0635 137.95 95.0508C137.975 95.038 138.001 95.031 138.028 95.0303C138.056 95.0296 138.083 95.0353 138.107 95.0468L139.182 95.4179C139.209 95.4221 139.235 95.4326 139.257 95.4485C139.279 95.4644 139.297 95.4852 139.31 95.5094C139.323 95.5336 139.33 95.5605 139.33 95.5878C139.331 95.6152 139.325 95.6423 139.313 95.667C139.256 95.8343 139.238 96.0127 139.262 96.188C139.286 96.3632 139.35 96.5306 139.449 96.6768C139.813 97.0844 140.251 97.4197 140.739 97.6654C142.558 98.5874 144.431 99.3985 146.348 100.094C146.376 100.099 146.402 100.111 146.425 100.128C146.447 100.145 146.465 100.168 146.477 100.193C146.49 100.218 146.496 100.246 146.496 100.274C146.495 100.303 146.488 100.33 146.476 100.355L144.648 105.65C144.641 105.677 144.629 105.702 144.612 105.723C144.594 105.744 144.572 105.76 144.547 105.771C144.523 105.783 144.495 105.788 144.468 105.787C144.441 105.786 144.414 105.778 144.39 105.765L135.522 102.703C135.495 102.699 135.469 102.688 135.447 102.672C135.425 102.657 135.407 102.636 135.394 102.612C135.382 102.587 135.375 102.561 135.374 102.534C135.374 102.506 135.38 102.479 135.391 102.455L135.803 101.264C135.809 101.237 135.821 101.212 135.838 101.191C135.855 101.17 135.877 101.154 135.902 101.143C135.927 101.132 135.954 101.127 135.981 101.128C136.009 101.129 136.035 101.137 136.059 101.15L143.671 103.778L144.574 101.162C142.942 100.556 141.357 99.8298 139.833 98.9896V98.9896Z" fill="white"/>
<path d="M140.625 107.11C141.019 107.285 141.371 107.544 141.656 107.868C141.941 108.191 142.152 108.573 142.276 108.986C142.481 109.883 142.333 110.824 141.863 111.615L140.284 114.682C140.274 114.709 140.259 114.733 140.238 114.753C140.218 114.773 140.193 114.787 140.166 114.796C140.139 114.805 140.111 114.807 140.083 114.803C140.055 114.799 140.028 114.788 140.005 114.772L131.666 110.475C131.639 110.466 131.615 110.451 131.595 110.431C131.575 110.411 131.561 110.386 131.552 110.359C131.543 110.333 131.541 110.304 131.545 110.276C131.55 110.249 131.56 110.222 131.577 110.199L132.147 109.091C132.157 109.064 132.172 109.04 132.192 109.02C132.213 109.001 132.237 108.986 132.264 108.977C132.291 108.969 132.319 108.966 132.347 108.971C132.375 108.975 132.402 108.985 132.425 109.002L135.384 110.526L136.073 109.187L134.107 105.586C134.08 105.544 134.065 105.496 134.063 105.446C134.061 105.396 134.073 105.347 134.098 105.304L134.826 103.892C134.863 103.819 134.909 103.781 134.963 103.777C135.014 103.774 135.061 103.813 135.101 103.895L137.04 107.697C137.466 107.207 138.047 106.876 138.686 106.759C139.354 106.657 140.035 106.781 140.625 107.11V107.11ZM137.613 109.456L136.71 111.209L139.57 112.683L140.474 110.93C140.618 110.744 140.716 110.527 140.761 110.297C140.806 110.066 140.797 109.828 140.734 109.602C140.672 109.375 140.557 109.166 140.4 108.992C140.243 108.817 140.048 108.681 139.829 108.595C138.895 108.114 138.156 108.401 137.613 109.456H137.613Z" fill="white"/>
<path d="M113.906 127.246L114.932 126.563C114.952 126.545 114.976 126.531 115.002 126.523C115.028 126.515 115.056 126.513 115.082 126.517C115.109 126.522 115.135 126.532 115.157 126.548C115.179 126.564 115.197 126.585 115.21 126.61L116.863 129.096C116.881 129.117 116.895 129.142 116.902 129.169C116.909 129.197 116.91 129.225 116.905 129.253C116.899 129.28 116.887 129.306 116.87 129.329C116.852 129.351 116.83 129.369 116.805 129.381L116.519 129.57C116.408 129.738 116.336 129.928 116.306 130.127C116.276 130.326 116.29 130.528 116.346 130.721C116.55 131.514 116.847 132.281 117.23 133.004C117.723 134.018 118.49 135.424 119.531 137.221C119.55 137.244 119.563 137.271 119.57 137.3C119.577 137.328 119.578 137.358 119.572 137.387C119.567 137.416 119.554 137.444 119.537 137.468C119.519 137.491 119.497 137.511 119.471 137.525L114.954 140.527C114.933 140.545 114.908 140.559 114.881 140.567C114.854 140.574 114.825 140.575 114.798 140.569C114.77 140.564 114.744 140.552 114.722 140.535C114.699 140.517 114.681 140.495 114.669 140.47L110.211 133.762L109.595 134.172C109.574 134.191 109.549 134.204 109.522 134.212C109.495 134.219 109.466 134.22 109.439 134.214C109.411 134.209 109.385 134.197 109.363 134.18C109.34 134.162 109.322 134.14 109.31 134.115L107.658 131.628C107.641 131.607 107.629 131.582 107.622 131.556C107.616 131.529 107.616 131.502 107.622 131.475C107.629 131.448 107.641 131.424 107.658 131.403C107.676 131.382 107.698 131.365 107.723 131.354L108.751 130.672C108.77 130.653 108.794 130.639 108.82 130.631C108.846 130.623 108.873 130.622 108.9 130.626C108.927 130.63 108.953 130.641 108.975 130.657C108.997 130.673 109.014 130.694 109.027 130.718L109.944 132.098L114.769 128.891L113.853 127.511C113.835 127.492 113.823 127.468 113.816 127.443C113.809 127.418 113.808 127.391 113.813 127.365C113.818 127.34 113.829 127.316 113.845 127.295C113.861 127.274 113.882 127.257 113.906 127.246ZM117.467 137.032C116.497 135.408 115.788 134.119 115.34 133.166C114.956 132.435 114.721 131.636 114.649 130.814L111.604 132.838L115.333 138.45L117.467 137.032Z" fill="white"/>
<path d="M107.654 138.124L106.482 135.678L102.517 137.58C102.495 137.596 102.469 137.606 102.442 137.61C102.415 137.615 102.388 137.613 102.362 137.605C102.336 137.596 102.312 137.582 102.292 137.563C102.273 137.545 102.258 137.521 102.248 137.496L101.769 136.496C101.753 136.472 101.743 136.446 101.74 136.418C101.736 136.39 101.739 136.361 101.748 136.335C101.758 136.308 101.773 136.284 101.793 136.264C101.814 136.245 101.838 136.23 101.865 136.222L107.15 133.687C107.173 133.672 107.199 133.663 107.227 133.661C107.254 133.658 107.281 133.662 107.306 133.672C107.332 133.682 107.354 133.698 107.372 133.718C107.391 133.738 107.404 133.762 107.411 133.789L111.469 142.248C111.485 142.27 111.496 142.295 111.5 142.322C111.504 142.349 111.502 142.376 111.494 142.402C111.486 142.428 111.472 142.452 111.453 142.472C111.434 142.491 111.411 142.506 111.386 142.516L106.273 144.968C106.25 144.983 106.223 144.993 106.195 144.997C106.167 145.001 106.139 144.998 106.112 144.988C106.085 144.979 106.061 144.964 106.042 144.943C106.022 144.923 106.007 144.899 105.999 144.872L105.519 143.871C105.504 143.848 105.496 143.822 105.494 143.795C105.491 143.768 105.495 143.74 105.505 143.715C105.515 143.69 105.531 143.667 105.551 143.649C105.571 143.63 105.595 143.617 105.621 143.61L109.413 141.791L108.305 139.482L104.834 141.146C104.811 141.162 104.784 141.172 104.756 141.175C104.728 141.179 104.7 141.176 104.673 141.167C104.647 141.157 104.623 141.142 104.603 141.122C104.583 141.102 104.569 141.077 104.56 141.05L104.087 140.062C104.072 140.038 104.062 140.012 104.058 139.984C104.055 139.956 104.058 139.928 104.067 139.901C104.077 139.875 104.092 139.851 104.112 139.831C104.132 139.811 104.157 139.797 104.183 139.788L107.654 138.124Z" fill="white"/>
<path d="M96.8244 143.988L98.0081 147.678C98.0209 147.702 98.028 147.729 98.0286 147.756C98.0293 147.784 98.0235 147.811 98.0118 147.835C98.0001 147.86 97.9828 147.882 97.9612 147.898C97.9397 147.915 97.9145 147.927 97.8877 147.932L96.6884 148.317C96.6635 148.328 96.6364 148.333 96.6092 148.332C96.582 148.331 96.5555 148.323 96.5317 148.31C96.5079 148.296 96.4876 148.278 96.4722 148.255C96.4569 148.233 96.447 148.207 96.4433 148.18L93.5766 139.247C93.5641 139.223 93.5574 139.197 93.5569 139.169C93.5565 139.142 93.5623 139.115 93.574 139.091C93.5856 139.066 93.6027 139.044 93.6241 139.028C93.6454 139.011 93.6703 138.999 93.6969 138.993L94.8962 138.608C94.9212 138.597 94.9484 138.592 94.9757 138.593C95.003 138.595 95.0297 138.602 95.0535 138.615C95.0774 138.629 95.0979 138.647 95.1133 138.67C95.1288 138.692 95.1388 138.718 95.1426 138.745L96.3597 142.54L100.038 141.36L98.8195 137.566C98.8068 137.541 98.7999 137.515 98.7993 137.487C98.7987 137.46 98.8045 137.433 98.8162 137.408C98.8278 137.384 98.8451 137.362 98.8666 137.345C98.888 137.328 98.9131 137.316 98.9399 137.311L100.139 136.926C100.164 136.915 100.191 136.91 100.219 136.911C100.246 136.912 100.272 136.92 100.296 136.933C100.32 136.947 100.34 136.965 100.356 136.988C100.371 137.011 100.381 137.036 100.384 137.063L103.251 145.997C103.264 146.021 103.271 146.048 103.271 146.075C103.272 146.102 103.266 146.129 103.255 146.154C103.243 146.178 103.226 146.2 103.204 146.217C103.183 146.233 103.157 146.245 103.131 146.25L101.931 146.635C101.906 146.646 101.879 146.652 101.852 146.65C101.825 146.649 101.798 146.642 101.775 146.628C101.751 146.615 101.73 146.597 101.715 146.574C101.7 146.552 101.69 146.526 101.686 146.499L100.501 142.808L96.8244 143.988Z" fill="white"/>
<path d="M88.0536 140.095L91.4552 139.51C91.5812 139.489 91.6559 139.545 91.6792 139.68L93.2675 148.926C93.2767 148.952 93.2797 148.979 93.2765 149.006C93.2733 149.033 93.2639 149.059 93.249 149.082C93.2341 149.105 93.2141 149.124 93.1906 149.137C93.1672 149.151 93.1408 149.159 93.1137 149.161L91.8587 149.377C91.7316 149.399 91.657 149.342 91.6336 149.207L91.0963 146.075L89.2194 146.398C88.3178 146.608 87.3699 146.468 86.5678 146.006C86.2098 145.764 85.9083 145.447 85.6842 145.078C85.46 144.709 85.3185 144.295 85.2694 143.866C85.1711 143.439 85.1631 142.996 85.2458 142.565C85.3285 142.135 85.5002 141.726 85.7497 141.366C86.3189 140.653 87.1475 140.196 88.0536 140.095ZM90.8344 144.55L90.2738 141.284L88.33 141.617C88.098 141.625 87.8708 141.686 87.6666 141.796C87.4624 141.907 87.2867 142.063 87.1534 142.253C87.0202 142.443 86.933 142.662 86.8989 142.892C86.8648 143.121 86.8846 143.356 86.9569 143.576C86.9681 143.802 87.0318 144.023 87.1429 144.22C87.2541 144.418 87.4096 144.586 87.5972 144.713C87.7848 144.84 87.9993 144.921 88.2238 144.951C88.4483 144.981 88.6766 144.958 88.8906 144.884L90.8344 144.55Z" fill="white"/>
<path d="M79.521 140.924L80.796 140.937C80.9231 140.939 80.9855 141.008 80.9844 141.144L80.8852 150.526C80.8841 150.663 80.8206 150.731 80.6913 150.73L73.8991 150.658C73.8712 150.661 73.8428 150.658 73.8162 150.649C73.7895 150.64 73.7654 150.625 73.7457 150.605C73.726 150.585 73.7113 150.56 73.7027 150.533C73.6941 150.506 73.6919 150.478 73.6963 150.45L73.7943 141.069C73.7909 141.041 73.7939 141.013 73.8032 140.986C73.8125 140.959 73.8279 140.935 73.8481 140.916C73.8683 140.896 73.8927 140.881 73.9196 140.872C73.9464 140.864 73.9749 140.861 74.0028 140.866L75.2622 140.879C75.3904 140.881 75.4528 140.95 75.4517 141.086L75.3681 149.153L79.2423 149.194L79.327 141.127C79.3293 140.99 79.3939 140.923 79.521 140.924Z" fill="white"/>
<path d="M64.0439 143.156C64.0935 142.646 64.2463 142.152 64.4931 141.703C64.7399 141.254 65.0755 140.861 65.4794 140.546C66.3719 140.027 67.4161 139.83 68.4363 139.99C69.4564 140.15 70.3904 140.657 71.0812 141.424C71.3694 141.847 71.5683 142.325 71.6657 142.828C71.763 143.331 71.7568 143.848 71.6474 144.348L71.2573 146.839C71.2083 147.347 71.0559 147.841 70.8094 148.288C70.5629 148.736 70.2276 149.128 69.824 149.442C68.9301 149.957 67.887 150.15 66.868 149.99C65.8489 149.83 64.9153 149.326 64.2222 148.562C63.9336 148.141 63.7343 147.664 63.6365 147.163C63.5388 146.661 63.5446 146.145 63.6537 145.646L64.0439 143.156ZM69.9845 144.087C70.1202 143.494 70.0186 142.871 69.7014 142.352C69.3083 141.914 68.7761 141.625 68.1945 141.533C67.6129 141.442 67.0177 141.554 66.5092 141.851C66.0475 142.248 65.7601 142.81 65.709 143.417L65.3189 145.894C65.2614 146.18 65.2624 146.475 65.322 146.762C65.3816 147.048 65.4984 147.319 65.6655 147.559C65.8326 147.798 66.0466 148.002 66.2944 148.157C66.5422 148.312 66.8188 148.415 67.1076 148.46C67.3964 148.505 67.6913 148.492 67.9746 148.42C68.258 148.348 68.5239 148.22 68.7563 148.043C68.9887 147.866 69.1829 147.643 69.3271 147.389C69.4713 147.135 69.5626 146.854 69.5955 146.563L69.9845 144.087Z" fill="white"/>
<path d="M60.1482 141.487C60.5079 140.688 61.0849 140.006 61.8134 139.519C62.4607 139.203 63.2069 139.154 63.8898 139.384C63.9168 139.388 63.9427 139.397 63.9653 139.413C63.988 139.428 64.0069 139.448 64.0205 139.471C64.0341 139.495 64.0421 139.521 64.0437 139.549C64.0454 139.576 64.0408 139.603 64.0302 139.628L63.6959 140.715C63.6546 140.846 63.5744 140.892 63.4518 140.854C63.2824 140.802 63.1033 140.791 62.9288 140.821C62.7543 140.851 62.5891 140.921 62.4464 141.026C62.0515 141.403 61.7315 141.851 61.5035 142.347C60.6438 144.196 59.8971 146.096 59.2677 148.036C59.2634 148.064 59.2526 148.091 59.2363 148.114C59.22 148.136 59.1985 148.155 59.1736 148.168C59.1487 148.182 59.1211 148.189 59.0929 148.19C59.0648 148.19 59.0368 148.184 59.0114 148.172L53.6571 146.526C53.6303 146.521 53.605 146.51 53.5833 146.493C53.5616 146.477 53.5441 146.456 53.5322 146.431C53.5203 146.407 53.5143 146.38 53.5147 146.352C53.5151 146.325 53.5218 146.298 53.5345 146.274L56.2897 137.306C56.293 137.279 56.3026 137.253 56.3177 137.231C56.3328 137.208 56.353 137.189 56.3767 137.175C56.4004 137.162 56.4269 137.154 56.4542 137.152C56.4814 137.151 56.5087 137.156 56.5337 137.166L57.7375 137.536C57.7643 137.541 57.7896 137.552 57.8113 137.569C57.8331 137.586 57.8506 137.607 57.8626 137.632C57.8746 137.656 57.8807 137.683 57.8805 137.71C57.8802 137.738 57.8736 137.765 57.8611 137.789L55.4949 145.487L58.1398 146.3C58.6905 144.649 59.3618 143.04 60.1482 141.487V141.487Z" fill="white"/>
<path d="M52.0626 142.548C51.9006 142.948 51.6542 143.309 51.3403 143.605C51.0264 143.901 50.6524 144.126 50.2437 144.265C49.354 144.498 48.4088 144.382 47.6022 143.94L44.4814 142.466C44.4545 142.457 44.4299 142.443 44.4095 142.423C44.3891 142.404 44.3736 142.38 44.3641 142.353C44.3545 142.327 44.3513 142.298 44.3547 142.27C44.358 142.242 44.3678 142.216 44.3833 142.192L48.3913 133.71C48.3997 133.683 48.4143 133.659 48.4338 133.638C48.4534 133.618 48.4774 133.602 48.504 133.593C48.5305 133.583 48.559 133.58 48.587 133.584C48.615 133.587 48.6419 133.597 48.6655 133.612L49.7923 134.145C49.8193 134.153 49.844 134.168 49.8644 134.187C49.8848 134.207 49.9004 134.231 49.9099 134.257C49.9194 134.284 49.9226 134.312 49.9192 134.34C49.9159 134.368 49.906 134.395 49.8904 134.419L48.4682 137.427L49.8302 138.071L53.3622 135.983C53.4027 135.955 53.4504 135.937 53.5001 135.934C53.5497 135.931 53.5992 135.942 53.6431 135.965L55.0798 136.643C55.1545 136.679 55.1935 136.722 55.1991 136.775C55.2046 136.829 55.1667 136.876 55.0854 136.919L51.3516 138.987C51.8572 139.396 52.208 139.965 52.3458 140.6C52.471 141.263 52.3714 141.949 52.0626 142.548V142.548ZM49.6128 139.62L47.8295 138.777L46.4553 141.687L48.2386 142.53C48.4296 142.667 48.6498 142.757 48.8818 142.794C49.1138 142.831 49.3512 142.814 49.5754 142.744C49.7996 142.673 50.0043 142.552 50.1735 142.389C50.3427 142.226 50.4716 142.026 50.5502 141.804C50.9994 140.855 50.6869 140.127 49.6128 139.62Z" fill="white"/>
<path d="M31.0015 116.508L31.7171 117.512C31.7366 117.531 31.7514 117.554 31.7603 117.58C31.7692 117.606 31.7719 117.634 31.7684 117.661C31.7648 117.688 31.755 117.713 31.7397 117.736C31.7244 117.759 31.7041 117.777 31.6803 117.791L29.2495 119.524C29.2292 119.544 29.2046 119.559 29.1776 119.567C29.1507 119.575 29.1222 119.577 29.0943 119.573C29.0665 119.568 29.0401 119.557 29.0173 119.541C28.9945 119.524 28.9759 119.502 28.963 119.477L28.7646 119.198C28.5936 119.093 28.4014 119.026 28.2016 119.003C28.0019 118.979 27.7995 119 27.6088 119.064C26.8229 119.293 26.0671 119.615 25.3574 120.023C24.3587 120.55 22.9789 121.363 21.2179 122.463C21.1955 122.482 21.1691 122.496 21.1406 122.504C21.1122 122.512 21.0823 122.514 21.0531 122.509C21.024 122.504 20.9963 122.493 20.972 122.476C20.9476 122.459 20.9273 122.437 20.9124 122.412L17.7628 117.997C17.7432 117.977 17.7286 117.952 17.7202 117.925C17.7118 117.898 17.7097 117.87 17.7143 117.842C17.7188 117.814 17.7298 117.787 17.7463 117.765C17.7629 117.742 17.7845 117.723 17.8096 117.71L24.3654 113.033L23.9352 112.431C23.916 112.411 23.9018 112.386 23.8937 112.359C23.8857 112.332 23.8839 112.303 23.8887 112.276C23.8934 112.248 23.9045 112.222 23.9211 112.199C23.9377 112.176 23.9593 112.157 23.9843 112.144L26.414 110.41C26.4344 110.392 26.4587 110.379 26.485 110.372C26.5114 110.365 26.539 110.364 26.5657 110.369C26.5925 110.375 26.6175 110.386 26.639 110.403C26.6604 110.42 26.6777 110.442 26.6893 110.466L27.406 111.469C27.4254 111.489 27.44 111.512 27.4488 111.538C27.4576 111.564 27.4603 111.591 27.4566 111.618C27.453 111.645 27.4431 111.671 27.4277 111.694C27.4123 111.716 27.392 111.735 27.3681 111.748L26.0195 112.711L29.3844 117.426L30.7341 116.464C30.7532 116.446 30.7762 116.432 30.8013 116.425C30.8264 116.417 30.853 116.415 30.879 116.419C30.9049 116.424 30.9295 116.434 30.9508 116.449C30.972 116.465 30.9894 116.485 31.0015 116.508V116.508ZM21.3383 120.392C22.9299 119.368 24.1945 118.617 25.1322 118.139C25.8492 117.731 26.6403 117.469 27.4595 117.37L25.3351 114.393L19.8514 118.307L21.3383 120.392Z" fill="white"/>
<path d="M19.9474 110.671L22.3504 109.415L20.313 105.519C20.2964 105.497 20.285 105.472 20.2799 105.445C20.2747 105.418 20.2758 105.39 20.2832 105.364C20.2905 105.338 20.3039 105.313 20.3222 105.293C20.3405 105.273 20.3633 105.257 20.3888 105.247L21.3718 104.734C21.3946 104.717 21.4209 104.706 21.4486 104.702C21.4764 104.697 21.5049 104.699 21.5317 104.708C21.5586 104.716 21.5831 104.731 21.6033 104.75C21.6235 104.77 21.6389 104.794 21.6482 104.82L24.3633 110.016C24.3785 110.038 24.3883 110.064 24.3918 110.091C24.3953 110.118 24.3925 110.146 24.3835 110.171C24.3745 110.197 24.3596 110.22 24.34 110.239C24.3205 110.258 24.2967 110.272 24.2707 110.28L15.9572 114.627C15.9357 114.643 15.9105 114.655 15.8838 114.66C15.857 114.665 15.8294 114.664 15.8032 114.657C15.7769 114.65 15.7527 114.637 15.7324 114.618C15.7121 114.6 15.6964 114.578 15.6864 114.552L13.0594 109.528C13.0428 109.505 13.0317 109.478 13.0271 109.451C13.0225 109.423 13.0245 109.394 13.033 109.367C13.0414 109.34 13.0561 109.315 13.0758 109.295C13.0955 109.275 13.1196 109.259 13.1463 109.25L14.1294 108.736C14.1521 108.721 14.178 108.712 14.205 108.708C14.2321 108.705 14.2596 108.708 14.2853 108.717C14.311 108.726 14.3343 108.741 14.3533 108.76C14.3723 108.78 14.3864 108.803 14.3947 108.829L16.3429 112.556L18.6122 111.37L16.8289 107.958C16.8124 107.936 16.8015 107.909 16.797 107.881C16.7925 107.853 16.7946 107.825 16.803 107.798C16.8115 107.771 16.826 107.746 16.8456 107.726C16.8652 107.706 16.8892 107.69 16.9158 107.681L17.8866 107.173C17.9096 107.157 17.936 107.146 17.9639 107.142C17.9918 107.137 18.0203 107.139 18.0472 107.148C18.0741 107.156 18.0987 107.171 18.119 107.19C18.1393 107.21 18.1547 107.234 18.1641 107.261L19.9474 110.671Z" fill="white"/>
<path d="M13.7064 100.061L10.0596 101.373C10.0358 101.387 10.0093 101.394 9.98207 101.396C9.95485 101.397 9.92766 101.392 9.90263 101.382C9.87759 101.371 9.85539 101.354 9.83776 101.334C9.82012 101.313 9.80753 101.288 9.80097 101.262L9.3752 100.076C9.36325 100.052 9.35716 100.025 9.35743 99.9977C9.3577 99.9705 9.36431 99.9436 9.37675 99.9193C9.38919 99.8951 9.4071 99.874 9.42908 99.8579C9.45106 99.8417 9.4765 99.8309 9.50338 99.8263L18.3307 96.652C18.3544 96.6383 18.3809 96.6304 18.4082 96.6287C18.4354 96.6271 18.4627 96.6319 18.4878 96.6426C18.5129 96.6534 18.5352 96.6699 18.5528 96.6908C18.5704 96.7117 18.5829 96.7364 18.5893 96.7629L19.0173 97.9483C19.0291 97.9728 19.035 97.9998 19.0345 98.0271C19.0341 98.0543 19.0273 98.0811 19.0148 98.1053C19.0023 98.1295 18.9843 98.1504 18.9623 98.1665C18.9403 98.1826 18.9149 98.1933 18.888 98.1979L15.1375 99.5471L16.4449 103.182L20.1943 101.833C20.218 101.819 20.2445 101.811 20.2717 101.81C20.2989 101.808 20.3261 101.813 20.3512 101.824C20.3762 101.834 20.3984 101.851 20.4161 101.872C20.4337 101.892 20.4463 101.917 20.4529 101.943L20.8786 103.129C20.8905 103.154 20.8965 103.181 20.8962 103.208C20.8959 103.235 20.8893 103.262 20.8768 103.286C20.8644 103.31 20.8465 103.331 20.8246 103.347C20.8026 103.364 20.7773 103.374 20.7505 103.379L11.922 106.554C11.8984 106.567 11.872 106.575 11.8448 106.577C11.8176 106.578 11.7905 106.574 11.7655 106.563C11.7405 106.552 11.7184 106.536 11.7008 106.515C11.6833 106.494 11.6709 106.469 11.6645 106.443L11.2377 105.257C11.2259 105.232 11.2201 105.205 11.2205 105.178C11.2209 105.151 11.2277 105.124 11.2402 105.1C11.2527 105.076 11.2707 105.055 11.2927 105.039C11.3147 105.023 11.3401 105.012 11.3669 105.007L15.0138 103.695L13.7064 100.061Z" fill="white"/>
<path d="M17.2962 91.1332L17.9962 94.5136C18.0229 94.6384 17.9683 94.7148 17.8334 94.7426L8.64719 96.6463C8.51337 96.6736 8.43319 96.6251 8.40756 96.5003L8.14898 95.2531C8.12335 95.1277 8.17685 95.0514 8.3106 95.0235L11.4225 94.3793L11.0368 92.5146C10.7948 91.6209 10.9025 90.6685 11.3377 89.8513C11.5667 89.4848 11.8724 89.1724 12.2337 88.9355C12.5951 88.6987 13.0035 88.543 13.4309 88.4793C13.8548 88.3667 14.2976 88.3437 14.7309 88.4118C15.1643 88.4799 15.5786 88.6377 15.9476 88.8749C16.6787 89.4191 17.1638 90.2314 17.2962 91.1332V91.1332ZM12.9383 94.065L16.1839 93.3924L15.7838 91.4614C15.7683 91.2298 15.6991 91.005 15.5817 90.8048C15.4643 90.6045 15.3019 90.4344 15.1074 90.3078C14.9129 90.1811 14.6915 90.1015 14.4609 90.0752C14.2303 90.0489 13.9967 90.0767 13.7787 90.1562C13.553 90.1752 13.3349 90.2464 13.1414 90.3641C12.948 90.4819 12.7846 90.6431 12.6642 90.8348C12.5437 91.0266 12.4696 91.2438 12.4475 91.4692C12.4254 91.6946 12.4561 91.922 12.5371 92.1335L12.9383 94.065Z" fill="white"/>
<path d="M16.1728 82.6432L16.2029 83.9171C16.2063 84.0453 16.1383 84.1106 16.0023 84.1138L6.62214 84.334C6.48617 84.3373 6.41705 84.2754 6.41268 84.1473L6.25317 77.3557C6.24855 77.3278 6.25051 77.2992 6.25889 77.2723C6.26727 77.2453 6.28184 77.2206 6.30143 77.2003C6.32103 77.1799 6.34511 77.1644 6.37176 77.155C6.3984 77.1456 6.42688 77.1426 6.45491 77.1461L15.8328 76.9255C15.8606 76.9207 15.8891 76.9225 15.916 76.9307C15.943 76.9389 15.9676 76.9533 15.988 76.9728C16.0083 76.9922 16.0239 77.0162 16.0333 77.0427C16.0428 77.0692 16.0459 77.0976 16.0424 77.1255L16.0725 78.3855C16.0758 78.5137 16.009 78.5789 15.8719 78.5822L7.808 78.7712L7.89827 82.6465L15.9621 82.4565C16.1004 82.4542 16.1695 82.5161 16.1728 82.6432Z" fill="white"/>
<path d="M13.4131 67.2392C13.9242 67.2713 14.4234 67.4071 14.8802 67.6385C15.3371 67.8699 15.742 68.192 16.0702 68.5851C16.6196 69.4595 16.851 70.4964 16.7256 71.5214C16.6001 72.5464 16.1254 73.4969 15.3814 74.213C14.9683 74.5155 14.4979 74.7305 13.9989 74.845C13.4998 74.9595 12.9827 74.9711 12.4791 74.879L9.97801 74.5725C9.46783 74.5411 8.96947 74.4057 8.51364 74.1744C8.05781 73.9431 7.65416 73.621 7.32757 73.2278C6.7825 72.3519 6.5536 71.3159 6.67891 70.292C6.80422 69.268 7.27619 68.3178 8.01637 67.5992C8.42809 67.2966 8.89737 67.0814 9.39534 66.9669C9.89332 66.8524 10.4094 66.8409 10.912 66.9333L13.4131 67.2392ZM12.6842 73.2071C13.2815 73.3224 13.9002 73.1998 14.4084 72.8655C14.8336 72.4579 15.1048 71.9159 15.1763 71.3313C15.2478 70.7467 15.1151 70.1553 14.8007 69.6573C14.388 69.2096 13.8161 68.9417 13.208 68.9111L10.7203 68.6068C10.4319 68.5588 10.1368 68.5697 9.85273 68.6388C9.56866 68.7079 9.30152 68.8338 9.06741 69.009C8.8333 69.1841 8.63708 69.4048 8.49056 69.6578C8.34403 69.9108 8.25025 70.1908 8.21486 70.481C8.17947 70.7712 8.2032 71.0656 8.28463 71.3464C8.36605 71.6272 8.50349 71.8885 8.68864 72.1148C8.8738 72.341 9.10285 72.5275 9.36199 72.6628C9.62113 72.7982 9.90498 72.8797 10.1965 72.9024L12.6842 73.2071Z" fill="white"/>
<path d="M14.9573 63.2745C15.7678 63.6066 16.4684 64.1601 16.9792 64.8716C17.3181 65.5078 17.3919 66.2522 17.1843 66.9425C17.1486 67.0751 17.0695 67.1242 16.9457 67.0907L15.849 66.7937C15.7163 66.7575 15.6662 66.6783 15.6996 66.5546C15.7458 66.3838 15.7514 66.2045 15.716 66.0311C15.6805 65.8577 15.6051 65.695 15.4957 65.556C15.1056 65.1735 14.6464 64.8687 14.1426 64.6576C12.2653 63.8605 10.3414 63.1781 8.38138 62.6141C8.35348 62.6106 8.32678 62.6006 8.3034 62.585C8.28002 62.5693 8.26059 62.5485 8.24664 62.5241C8.2327 62.4996 8.22463 62.4723 8.22306 62.4442C8.22149 62.4161 8.22648 62.3881 8.23761 62.3622L9.70214 56.9555C9.73446 56.8323 9.81805 56.7889 9.9507 56.8246L19.0054 59.2772C19.0326 59.2796 19.0589 59.2883 19.0821 59.3026C19.1054 59.3169 19.125 59.3364 19.1394 59.3596C19.1538 59.3828 19.1625 59.4091 19.165 59.4362C19.1675 59.4634 19.1636 59.4908 19.1537 59.5163L18.8249 60.7323C18.8206 60.7592 18.81 60.7847 18.7941 60.8068C18.7782 60.8289 18.7574 60.847 18.7333 60.8597C18.7092 60.8724 18.6825 60.8793 18.6553 60.8799C18.628 60.8805 18.601 60.8748 18.5764 60.8632L10.8034 58.7578L10.0801 61.4283C11.749 61.9231 13.3791 62.5401 14.9573 63.2745V63.2745Z" fill="white"/>
<path d="M13.625 55.2371C13.22 55.0891 12.8517 54.8553 12.5453 54.5519C12.2389 54.2484 12.0015 53.8825 11.8495 53.4789C11.5848 52.5978 11.6682 51.6488 12.0824 50.8274L13.45 47.6587C13.4574 47.6315 13.471 47.6064 13.4898 47.5854C13.5085 47.5644 13.5319 47.5481 13.5581 47.5377C13.5843 47.5273 13.6125 47.5231 13.6406 47.5256C13.6686 47.528 13.6957 47.5369 13.7197 47.5517L22.3331 51.2682C22.3605 51.2754 22.3858 51.289 22.407 51.3078C22.4283 51.3266 22.4447 51.3501 22.4551 51.3765C22.4656 51.4029 22.4696 51.4313 22.467 51.4596C22.4644 51.4878 22.4552 51.515 22.4401 51.539L21.9474 52.6826C21.9401 52.7098 21.9265 52.7349 21.9078 52.7559C21.889 52.777 21.8656 52.7933 21.8394 52.8037C21.8132 52.8141 21.785 52.8182 21.7569 52.8158C21.7288 52.8133 21.7017 52.8043 21.6777 52.7896L18.6216 51.471L18.0242 52.8548L20.2311 56.3132C20.2612 56.3527 20.2799 56.3997 20.285 56.449C20.2901 56.4984 20.2815 56.5482 20.26 56.593L19.6303 58.0519C19.598 58.1277 19.5556 58.169 19.5021 58.1762C19.4498 58.1829 19.4007 58.1467 19.355 58.0675L17.1615 54.4062C16.7701 54.9252 16.2134 55.2951 15.5833 55.4549C14.9245 55.6029 14.2352 55.5262 13.625 55.2371ZM16.4694 52.6904L17.2507 50.8793L14.2948 49.6047L13.5146 51.4154C13.3843 51.6108 13.3012 51.8339 13.2718 52.067C13.2425 52.3001 13.2677 52.5369 13.3455 52.7586C13.4234 52.9802 13.5516 53.1808 13.7203 53.3444C13.8889 53.508 14.0932 53.6302 14.3171 53.7013C15.2823 54.1176 15.9998 53.7806 16.4694 52.6904Z" fill="white"/>
</svg>
