<svg width="157" height="158" viewBox="0 0 157 158" fill="none" xmlns="http://www.w3.org/2000/svg">
<path d="M151 79C151 119.353 118.504 152 78.4995 152C38.4947 152 5.99951 119.353 5.99951 79C5.99951 38.6472 38.4947 6 78.4995 6C118.504 6 151 38.6472 151 79Z" stroke="#555552" stroke-opacity="0.5" stroke-width="12"/>
<path d="M129.501 79.001C129.501 107.448 106.663 130.501 78.5015 130.501C50.3395 130.501 27.5015 107.448 27.5015 79.001C27.5015 50.5537 50.3395 27.501 78.5015 27.501C106.663 27.501 129.501 50.5537 129.501 79.001Z" stroke="white" stroke-opacity="0.5"/>
<path d="M129.501 79.001C129.501 107.448 106.663 130.501 78.5015 130.501C50.3395 130.501 27.5015 107.448 27.5015 79.001C27.5015 50.5537 50.3395 27.501 78.5015 27.501C106.663 27.501 129.501 50.5537 129.501 79.001Z" stroke="white" stroke-opacity="0.5"/>
<path d="M78.5014 40.001C77.5255 40.001 76.7792 40.7335 76.7792 41.6915V67.1609C74.8273 65.3577 72.1866 64.2311 69.3162 64.2311H64.7236C63.7477 64.2311 63.0014 64.9637 63.0014 65.9216V70.4295C63.0014 76.3462 67.881 81.1359 73.9088 81.1359H76.7792V91.2788H73.9088C69.7755 91.2788 66.4458 88.0105 66.4458 83.9534V82.2629C66.4458 81.3049 65.6996 80.5724 64.7236 80.5724C63.7477 80.5724 63.0014 81.3049 63.0014 82.2629V83.9534C63.0014 89.87 67.881 94.6597 73.9088 94.6597H76.7792V104.803H73.9088C69.7755 104.803 66.4458 101.534 66.4458 97.4772V96.3502C66.4458 95.3922 65.6996 94.6597 64.7236 94.6597C63.7477 94.6597 63.0014 95.3922 63.0014 96.3502V97.4772C63.0014 103.394 67.881 108.184 73.9088 108.184H76.7792V109.31C76.7792 110.268 77.5255 111.001 78.5014 111.001C79.4773 111.001 80.2236 110.268 80.2236 109.31V108.184H83.094C89.1218 108.184 94.0014 103.394 94.0014 97.4772V95.7867C94.0014 94.8288 93.2551 94.0962 92.2792 94.0962C91.3033 94.0962 90.557 94.8288 90.557 95.7867V97.4772C90.557 101.534 87.2273 104.803 83.094 104.803H80.2236V94.6597H83.094C89.1218 94.6597 94.0014 89.87 94.0014 83.9534V82.2629C94.0014 81.3049 93.2551 80.5724 92.2792 80.5724C91.3033 80.5724 90.557 81.3049 90.557 82.2629V83.9534C90.557 88.0105 87.2273 91.2788 83.094 91.2788H80.2236V81.1359H83.094C89.1218 81.1359 94.0014 76.3462 94.0014 70.4295V65.9216C94.0014 64.9637 93.2551 64.2311 92.2792 64.2311H87.6866C84.8162 64.2311 82.1755 65.3577 80.2236 67.1609V41.6915C80.2236 40.7335 79.4773 40.001 78.5014 40.001ZM71.6125 45.6359C70.6366 45.6359 69.8903 46.3684 69.8903 47.3264V58.5962C69.8903 59.5542 70.6366 60.2867 71.6125 60.2867C72.5884 60.2867 73.3347 59.5542 73.3347 58.5962V47.3264C73.3347 46.3684 72.5884 45.6359 71.6125 45.6359ZM85.3903 45.6359C84.4144 45.6359 83.6681 46.3684 83.6681 47.3264V58.5962C83.6681 59.5542 84.4144 60.2867 85.3903 60.2867C86.3662 60.2867 87.1125 59.5542 87.1125 58.5962V47.3264C87.1125 46.3684 86.3662 45.6359 85.3903 45.6359ZM66.4458 67.6121H69.3162C73.4496 67.6121 76.7792 70.8803 76.7792 74.9375V77.7549H73.9088C69.7755 77.7549 66.4458 74.4867 66.4458 70.4295V67.6121ZM87.6866 67.6121H90.557V70.4295C90.557 74.4867 87.2273 77.7549 83.094 77.7549H80.2236V74.9375C80.2236 70.8803 83.5533 67.6121 87.6866 67.6121Z" fill="#FF8447"/>
</svg>
