<svg width="157" height="158" viewBox="0 0 157 158" fill="none" xmlns="http://www.w3.org/2000/svg">
<path d="M18.7543 94.7814L19.0124 95.9797C19.0389 96.1026 18.9863 96.1782 18.8546 96.2066L9.83483 98.1497C9.70314 98.1781 9.62406 98.1308 9.59758 98.0079L9.2884 96.5726C9.26571 96.4673 9.29885 96.3867 9.38784 96.3307L12.0308 94.0804C12.5822 93.6125 13.2744 93.073 14.1072 92.4619L14.0959 92.4092C13.0852 92.1952 12.2324 91.9885 11.5372 91.7892L8.20496 90.8399C8.09705 90.808 8.03267 90.7438 8.01188 90.6472L7.70553 89.2251C7.67716 89.0934 7.72881 89.0134 7.86049 88.985L16.8803 87.0419C17.012 87.0136 17.092 87.0652 17.1204 87.1969L17.3785 88.3951C17.405 88.518 17.3524 88.5937 17.2207 88.622L14.574 89.1922C13.5382 89.4154 12.1524 89.6771 10.4167 89.9776L10.412 90.0199C11.0394 90.1604 11.9365 90.3804 13.1033 90.6802L15.6046 91.3539C15.7106 91.377 15.775 91.4412 15.7977 91.5465L16.0133 92.5473C16.036 92.6526 16.0038 92.7376 15.9166 92.8023L13.9146 94.4462C12.9747 95.1998 12.2478 95.7697 11.7339 96.156L11.7556 96.1927C13.461 95.7518 14.8317 95.4198 15.8675 95.1966L18.5142 94.6265C18.6459 94.5981 18.7259 94.6497 18.7543 94.7814Z" fill="white"/>
<path d="M7.30398 81.7246L16.5158 81.1996C16.6503 81.1919 16.7211 81.2508 16.7282 81.3764L16.7987 82.6136C16.8059 82.7391 16.7423 82.8057 16.6078 82.8133L7.39596 83.3384C7.26148 83.346 7.19068 83.2871 7.18352 83.1616L7.113 81.9244C7.10584 81.7989 7.1695 81.7323 7.30398 81.7246Z" fill="white"/>
<path d="M16.1381 71.371C16.746 72.25 17.0163 73.2992 16.9489 74.5186C16.8894 75.5945 16.5489 76.466 15.9275 77.1332C15.306 77.8003 14.4349 78.1029 13.3141 78.041L10.2477 77.8715C9.12699 77.8095 8.29453 77.4128 7.75039 76.6812C7.19729 75.9491 6.94997 75.0541 7.00846 73.9961C7.06693 72.9381 7.42034 71.9953 8.06864 71.1678C8.14582 71.0731 8.23621 71.0646 8.33984 71.1423L9.21946 71.825C9.32358 71.8937 9.3363 71.9888 9.25764 72.1104C8.82194 72.6709 8.58329 73.3277 8.54166 74.0808C8.50599 74.7264 8.64834 75.2424 8.96873 75.6288C9.28962 76.0063 9.75042 76.2117 10.3511 76.2449L13.3638 76.4114C13.9735 76.4451 14.4586 76.292 14.8191 75.9522C15.1801 75.6035 15.3787 75.1018 15.4149 74.4473C15.4615 73.6045 15.2695 72.8474 14.839 72.1761C14.7647 72.055 14.7876 71.9664 14.9076 71.91L15.8571 71.3285C15.9777 71.2632 16.0713 71.2774 16.1381 71.371Z" fill="white"/>
<path d="M13.722 65.8404L16.3303 66.3966L17.2322 62.168C17.2602 62.0362 17.3358 61.9835 17.4587 62.0097L18.5258 62.2373C18.6575 62.2654 18.7093 62.3453 18.6813 62.477L17.4788 68.1152C17.4526 68.2382 17.3736 68.2856 17.2418 68.2575L8.21804 66.333C8.0863 66.3049 8.03356 66.2294 8.05978 66.1065L9.22289 60.6527C9.25098 60.5209 9.33089 60.4691 9.46264 60.4972L10.5297 60.7248C10.6526 60.751 10.7001 60.83 10.672 60.9617L9.80946 65.0059L12.2729 65.5313L13.0624 61.8296C13.0904 61.6978 13.1704 61.646 13.3021 61.6741L14.356 61.8989C14.4877 61.927 14.5395 62.0069 14.5114 62.1386L13.722 65.8404Z" fill="white"/>
<path d="M138.556 62.7268L138.298 61.5286C138.271 61.4057 138.324 61.33 138.456 61.3017L147.475 59.3585C147.607 59.3302 147.686 59.3774 147.713 59.5003L148.022 60.9356C148.044 61.041 148.011 61.1216 147.922 61.1775L145.279 63.4279C144.728 63.8957 144.036 64.4352 143.203 65.0464L143.214 65.099C144.225 65.3131 145.078 65.5197 145.773 65.719L149.105 66.6684C149.213 66.7003 149.277 66.7645 149.298 66.861L149.605 68.2831C149.633 68.4148 149.581 68.4948 149.45 68.5232L140.43 70.4663C140.298 70.4947 140.218 70.443 140.19 70.3114L139.932 69.1131C139.905 68.9902 139.958 68.9146 140.089 68.8862L142.736 68.316C143.772 68.0929 145.158 67.8311 146.893 67.5307L146.898 67.4883C146.271 67.3479 145.374 67.1278 144.207 66.828L141.706 66.1543C141.599 66.1313 141.535 66.067 141.512 65.9617L141.297 64.961C141.274 64.8556 141.306 64.7706 141.393 64.7059L143.395 63.0621C144.335 62.3084 145.062 61.7385 145.576 61.3522L145.555 61.3156C143.849 61.7564 142.478 62.0885 141.443 62.3116L138.796 62.8818C138.664 62.9102 138.584 62.8585 138.556 62.7268Z" fill="white"/>
<path d="M150.006 75.7836L140.794 76.3087C140.66 76.3163 140.589 76.2574 140.582 76.1319L140.511 74.8947C140.504 74.7692 140.568 74.7026 140.702 74.6949L149.914 74.1699C150.049 74.1622 150.119 74.2211 150.127 74.3466L150.197 75.5838C150.204 75.7094 150.141 75.7759 150.006 75.7836Z" fill="white"/>
<path d="M141.172 86.1372C140.564 85.2583 140.294 84.2091 140.361 82.9897C140.421 81.9137 140.761 81.0422 141.383 80.3751C142.004 79.7079 142.875 79.4053 143.996 79.4673L147.062 79.6368C148.183 79.6987 149.016 80.0955 149.56 80.827C150.113 81.5591 150.36 82.4542 150.302 83.5122C150.243 84.5702 149.89 85.5129 149.241 86.3405C149.164 86.4351 149.074 86.4436 148.97 86.3659L148.091 85.6833C147.987 85.6146 147.974 85.5194 148.052 85.3979C148.488 84.8374 148.727 84.1806 148.768 83.4274C148.804 82.7819 148.662 82.2658 148.341 81.8794C148.021 81.5019 147.56 81.2966 146.959 81.2634L143.946 81.0969C143.337 81.0631 142.852 81.2162 142.491 81.556C142.13 81.9048 141.931 82.4064 141.895 83.061C141.849 83.9038 142.041 84.6609 142.471 85.3322C142.545 85.4532 142.523 85.5419 142.402 85.5982L141.453 86.1798C141.332 86.245 141.239 86.2309 141.172 86.1372Z" fill="white"/>
<path d="M143.588 91.6679L140.98 91.1116L140.078 95.3403C140.05 95.472 139.974 95.5248 139.851 95.4985L138.784 95.271C138.653 95.2429 138.601 95.163 138.629 95.0312L139.831 89.393C139.858 89.2701 139.937 89.2226 140.068 89.2507L149.092 91.1752C149.224 91.2033 149.277 91.2788 149.25 91.4018L148.087 96.8556C148.059 96.9873 147.979 97.0391 147.847 97.011L146.78 96.7835C146.657 96.7573 146.61 96.6783 146.638 96.5465L147.501 92.5023L145.037 91.9769L144.248 95.6787C144.22 95.8104 144.14 95.8622 144.008 95.8341L142.954 95.6094C142.822 95.5813 142.771 95.5014 142.799 95.3696L143.588 91.6679Z" fill="white"/>
<path d="M94.5834 138.761L95.7816 138.503C95.9045 138.476 95.9802 138.529 96.0085 138.66L97.9517 147.68C97.98 147.812 97.9328 147.891 97.8099 147.917L96.3746 148.227C96.2693 148.249 96.1886 148.216 96.1327 148.127L93.8823 145.484C93.4145 144.933 92.875 144.241 92.2638 143.408L92.2112 143.419C91.9972 144.43 91.7905 145.283 91.5912 145.978L90.6418 149.31C90.61 149.418 90.5457 149.482 90.4492 149.503L89.0271 149.809C88.8954 149.838 88.8154 149.786 88.787 149.654L86.8439 140.635C86.8155 140.503 86.8672 140.423 86.9988 140.395L88.1971 140.136C88.32 140.11 88.3956 140.163 88.424 140.294L88.9942 142.941C89.2173 143.977 89.4791 145.363 89.7795 147.098L89.8219 147.103C89.9623 146.476 90.1824 145.578 90.4822 144.412L91.1559 141.91C91.1789 141.804 91.2432 141.74 91.3485 141.717L92.3492 141.502C92.4546 141.479 92.5396 141.511 92.6043 141.598L94.2481 143.6C95.0018 144.54 95.5717 145.267 95.958 145.781L95.9947 145.759C95.5538 144.054 95.2217 142.683 94.9986 141.647L94.4284 139.001C94.4001 138.869 94.4517 138.789 94.5834 138.761Z" fill="white"/>
<path d="M81.5266 150.211L81.0015 140.999C80.9939 140.865 81.0528 140.794 81.1783 140.787L82.4155 140.716C82.541 140.709 82.6076 140.773 82.6153 140.907L83.1403 150.119C83.148 150.253 83.0891 150.324 82.9636 150.331L81.7264 150.402C81.6008 150.409 81.5343 150.345 81.5266 150.211Z" fill="white"/>
<path d="M71.173 141.377C72.0519 140.769 73.1011 140.499 74.3205 140.566C75.3965 140.626 76.268 140.966 76.9351 141.587C77.6023 142.209 77.9049 143.08 77.8429 144.201L77.6734 147.267C77.6115 148.388 77.2147 149.22 76.4831 149.765C75.7511 150.318 74.856 150.565 73.798 150.506C72.7401 150.448 71.7973 150.095 70.9697 149.446C70.8751 149.369 70.8666 149.279 70.9443 149.175L71.6269 148.295C71.6956 148.191 71.7908 148.179 71.9123 148.257C72.4728 148.693 73.1296 148.932 73.8828 148.973C74.5284 149.009 75.0444 148.867 75.4308 148.546C75.8083 148.225 76.0136 147.765 76.0468 147.164L76.2133 144.151C76.247 143.541 76.094 143.056 75.7542 142.696C75.4054 142.335 74.9038 142.136 74.2492 142.1C73.4064 142.053 72.6494 142.245 71.978 142.676C71.857 142.75 71.7683 142.727 71.712 142.607L71.1304 141.658C71.0652 141.537 71.0793 141.444 71.173 141.377Z" fill="white"/>
<path d="M65.6423 143.793L66.1986 141.185L61.9699 140.283C61.8382 140.255 61.7854 140.179 61.8116 140.056L62.0392 138.989C62.0673 138.857 62.1472 138.806 62.279 138.834L67.9172 140.036C68.0401 140.062 68.0876 140.141 68.0595 140.273L66.135 149.297C66.1069 149.429 66.0314 149.481 65.9084 149.455L60.4546 148.292C60.3229 148.264 60.2711 148.184 60.2991 148.052L60.5267 146.985C60.5529 146.862 60.6319 146.815 60.7637 146.843L64.8079 147.705L65.3333 145.242L61.6315 144.453C61.4998 144.424 61.448 144.345 61.4761 144.213L61.7008 143.159C61.7289 143.027 61.8088 142.975 61.9406 143.004L65.6423 143.793Z" fill="white"/>
<path d="M62.5971 18.7542L61.3989 19.0124C61.276 19.0389 61.2003 18.9863 61.172 18.8546L59.2288 9.83479C59.2005 9.7031 59.2477 9.62402 59.3706 9.59754L60.8059 9.28835C60.9112 9.26566 60.9919 9.29881 61.0478 9.38779L63.2982 12.0308C63.766 12.5822 64.3055 13.2743 64.9167 14.1072L64.9693 14.0958C65.1833 13.0852 65.39 12.2323 65.5893 11.5372L66.5387 8.20492C66.5705 8.09701 66.6348 8.03263 66.7313 8.01183L68.1534 7.70548C68.2851 7.67712 68.3651 7.72877 68.3935 7.86045L70.3366 16.8803C70.365 17.0119 70.3133 17.092 70.1816 17.1203L68.9834 17.3785C68.8605 17.4049 68.7849 17.3523 68.7565 17.2207L68.1863 14.574C67.9632 13.5381 67.7014 12.1523 67.401 10.4166L67.3586 10.412C67.2182 11.0393 66.9981 11.9364 66.6983 13.1033L66.0246 15.6046C66.0015 15.7106 65.9373 15.775 65.832 15.7977L64.8312 16.0133C64.7259 16.0359 64.6409 16.0037 64.5762 15.9166L62.9324 13.9146C62.1787 12.9746 61.6088 12.2477 61.2225 11.7339L61.1858 11.7556C61.6267 13.461 61.9587 14.8316 62.1819 15.8675L62.7521 18.5142C62.7804 18.6459 62.7288 18.7259 62.5971 18.7542Z" fill="white"/>
<path d="M75.6539 7.30393L76.179 16.5157C76.1866 16.6502 76.1277 16.721 76.0022 16.7282L74.765 16.7987C74.6395 16.8059 74.5729 16.7422 74.5652 16.6077L74.0402 7.39591C74.0325 7.26144 74.0914 7.19064 74.2169 7.18348L75.4541 7.11297C75.5796 7.10581 75.6462 7.16946 75.6539 7.30393Z" fill="white"/>
<path d="M86.0075 16.138C85.1285 16.746 84.0793 17.0162 82.86 16.9488C81.784 16.8894 80.9125 16.5489 80.2453 15.9274C79.5782 15.306 79.2756 14.4349 79.3376 13.3141L79.5071 10.2477C79.569 9.12695 79.9658 8.29449 80.6973 7.75034C81.4294 7.19724 82.3244 6.94993 83.3824 7.00842C84.4404 7.06689 85.3832 7.4203 86.2108 8.0686C86.3054 8.14578 86.3139 8.23617 86.2362 8.33979L85.5536 9.21942C85.4849 9.32354 85.3897 9.33627 85.2682 9.25761C84.7077 8.82191 84.0508 8.58325 83.2977 8.54162C82.6521 8.50595 82.1361 8.64829 81.7497 8.96868C81.3722 9.28958 81.1669 9.75038 81.1337 10.3511L80.9671 13.3637C80.9334 13.9734 81.0865 14.4585 81.4263 14.8191C81.7751 15.1801 82.2767 15.3787 82.9313 15.4149C83.7741 15.4615 84.5311 15.2695 85.2025 14.8389C85.3235 14.7647 85.4122 14.7876 85.4685 14.9076L86.05 15.8571C86.1153 15.9776 86.1012 16.0713 86.0075 16.138Z" fill="white"/>
<path d="M91.5382 13.7219L90.9819 16.3303L95.2106 17.2321C95.3423 17.2602 95.3951 17.3357 95.3688 17.4587L95.1413 18.5257C95.1132 18.6575 95.0333 18.7093 94.9015 18.6812L89.2633 17.4787C89.1404 17.4525 89.0929 17.3735 89.121 17.2418L91.0455 8.21801C91.0736 8.08627 91.1491 8.03352 91.2721 8.05973L96.7259 9.22285C96.8576 9.25094 96.9094 9.33085 96.8813 9.4626L96.6538 10.5296C96.6276 10.6526 96.5486 10.7 96.4168 10.6719L92.3726 9.80941L91.8472 12.2729L95.549 13.0623C95.6807 13.0904 95.7325 13.1703 95.7044 13.3021L95.4797 14.3559C95.4516 14.4877 95.3716 14.5395 95.2399 14.5114L91.5382 13.7219Z" fill="white"/>
</svg>
