<svg width="17" height="17" viewBox="0 0 17 17" fill="none" xmlns="http://www.w3.org/2000/svg">
<path d="M15.886 12.6913C16.616 11.415 17 9.97019 17 8.5C17 7.02981 16.616 5.58506 15.886 4.30868V4.26888C14.8851 2.53085 13.303 1.20154 11.4183 0.51503C9.53329 -0.171677 7.46675 -0.171677 5.58173 0.51503C3.69688 1.20161 2.11462 2.53092 1.114 4.26888V4.30868C0.384016 5.585 0 7.02981 0 8.5C0 9.97019 0.384016 11.4149 1.114 12.6913V12.7311C2.11488 14.4691 3.69701 15.7985 5.58173 16.485C7.46672 17.1717 9.53325 17.1717 11.4183 16.485C13.3031 15.7984 14.8854 14.4691 15.886 12.7311V12.6913ZM8.49984 15.8831C7.7044 15.8831 6.85787 14.8155 6.29542 13.0435H10.7044C10.1418 14.8155 9.29527 15.8831 8.49984 15.8831ZM5.9999 11.9076C5.80232 10.9731 5.6883 10.0228 5.659 9.06799H11.3407C11.3152 10.0224 11.2048 10.9727 11.0112 11.9076H5.9999ZM1.14224 9.06799H4.52267C4.54613 10.0208 4.64493 10.9703 4.81817 11.9076H1.95451C1.49517 11.0254 1.21882 10.0596 1.1421 9.06799H1.14224ZM1.95466 5.09249H4.82961C4.65269 6.02944 4.55009 6.97896 4.52283 7.93214H1.11383C1.19943 6.93852 1.48541 5.97252 1.95465 5.09249H1.95466ZM8.49994 1.11699C9.29537 1.11699 10.1419 2.18463 10.7044 3.95663H6.29538C6.85784 2.18463 7.70437 1.11699 8.49981 1.11699H8.49994ZM10.9999 5.09249C11.1975 6.02704 11.3115 6.9773 11.3408 7.93214H5.6591C5.68459 6.97769 5.79493 6.02743 5.98857 5.09249H10.9999ZM15.8861 7.93214H12.4771C12.4536 6.97935 12.3548 6.02983 12.1816 5.09249H15.0566C15.5219 5.97343 15.804 6.9394 15.8861 7.93214H15.8861ZM12.4771 9.06799H15.8861C15.8094 10.0596 15.533 11.0254 15.0737 11.9076H12.1703C12.3472 10.9707 12.4498 10.0212 12.4771 9.06799H12.4771ZM14.3236 3.95663H11.9089C11.678 3.08446 11.3139 2.25311 10.8294 1.49186C12.2049 1.95837 13.4151 2.81484 14.3121 3.95663H14.3236ZM6.18198 1.49186C5.69345 2.25236 5.32554 3.08384 5.09103 3.95663H2.68775C3.58796 2.81292 4.80227 1.95645 6.18182 1.49186H6.18198ZM2.68792 13.0435H5.0912C5.32214 13.9157 5.68624 14.7471 6.17071 15.5083C4.7952 15.0418 3.58503 14.1853 2.68801 13.0435H2.68792ZM10.8185 15.5083H10.8184C11.3069 14.7478 11.6749 13.9163 11.9094 13.0435H14.3241C13.4207 14.189 12.2023 15.0457 10.8183 15.5083H10.8185Z" fill="#0094FF"/>
</svg>
