<svg width="157" height="158" viewBox="0 0 157 158" fill="none" xmlns="http://www.w3.org/2000/svg">
<path d="M151 79C151 119.353 118.505 152 78.5 152C38.4952 152 6 119.353 6 79C6 38.6472 38.4952 6 78.5 6C118.505 6 151 38.6472 151 79Z" stroke="#555552" stroke-opacity="0.5" stroke-width="12"/>
<path d="M100.658 91.0739C102.848 87.245 104 82.9106 104 78.5C104 74.0894 102.848 69.7552 100.658 65.9261V65.8066C97.6554 60.5926 92.909 56.6046 87.2548 54.5451C81.5999 52.485 75.4002 52.485 69.7452 54.5451C64.0906 56.6048 59.3439 60.5928 56.342 65.8066V65.9261C54.152 69.755 53 74.0894 53 78.5C53 82.9106 54.152 87.2448 56.342 91.0739V91.1934C59.3446 96.4074 64.091 100.395 69.7452 102.455C75.4001 104.515 81.5998 104.515 87.2548 102.455C92.9094 100.395 97.6561 96.4072 100.658 91.1934V91.0739ZM78.4995 100.649C76.1132 100.649 73.5736 97.4465 71.8862 92.1305H85.1132C83.4254 97.4465 80.8858 100.649 78.4995 100.649ZM70.9997 88.7229C70.4069 85.9193 70.0649 83.0685 69.977 80.204H87.022C86.9455 83.0673 86.6145 85.9181 86.0336 88.7229H70.9997ZM56.4267 80.204H66.568C66.6384 83.0624 66.9348 85.9109 67.4545 88.7229H58.8635C57.4855 86.0763 56.6565 83.1788 56.4263 80.204H56.4267ZM58.864 68.2775H67.4888C66.9581 71.0883 66.6503 73.9369 66.5685 76.7964H56.3415C56.5983 73.8156 57.4562 70.9176 58.8639 68.2775H58.864ZM78.4998 56.351C80.8861 56.351 83.4257 59.5539 85.1131 64.8699H71.8862C73.5735 59.5539 76.1131 56.351 78.4994 56.351H78.4998ZM85.9996 68.2775C86.5924 71.0811 86.9344 73.9319 87.0223 76.7964H69.9773C70.0538 73.9331 70.3848 71.0823 70.9657 68.2775H85.9996ZM100.658 76.7964H90.4313C90.3609 73.938 90.0645 71.0895 89.5448 68.2775H98.1697C99.5656 70.9203 100.412 73.8182 100.658 76.7964H100.658ZM90.4313 80.204H100.658C100.428 83.1788 99.5991 86.0763 98.2211 88.7229H89.511C90.0417 85.9121 90.3495 83.0635 90.4313 80.204H90.4313ZM95.9709 64.8699H88.7268C88.034 62.2534 86.9417 59.7593 85.4883 57.4756C89.6148 58.8751 93.2453 61.4445 95.9364 64.8699H95.9709ZM71.5459 57.4756C70.0804 59.7571 68.9766 62.2515 68.2731 64.8699H61.0633C63.7639 61.4388 67.4068 58.8694 71.5454 57.4756H71.5459ZM61.0637 92.1306H68.2736C68.9664 94.7471 70.0587 97.2412 71.5121 99.5249C67.3856 98.1254 63.7551 95.556 61.064 92.1306H61.0637ZM85.4556 99.5249H85.4552C86.9208 97.2434 88.0246 94.749 88.7281 92.1306H95.9722C93.2621 95.5671 89.6069 98.1372 85.455 99.5249H85.4556Z" fill="#0094FF"/>
<mask id="path-3-inside-1_1751_218" fill="white">
<path d="M127.403 62.6218C136.516 89.8563 122.038 119.251 95.0654 128.276C68.0927 137.302 38.8394 122.541 29.7262 95.3061C20.6131 68.0716 35.0911 38.677 62.0638 29.6515C89.0364 20.6259 118.29 35.3872 127.403 62.6218Z"/>
</mask>
<path d="M126.455 62.9391C135.395 89.6586 121.188 118.481 94.7481 127.328L95.3827 129.225C122.888 120.021 137.637 90.0541 128.351 62.3045L126.455 62.9391ZM94.7481 127.328C68.3078 136.176 39.6154 121.708 30.6746 94.9888L28.7779 95.6234C38.0634 123.373 67.8777 138.428 95.3827 129.225L94.7481 127.328ZM30.6746 94.9888C21.7338 68.2693 35.9408 39.4472 62.3811 30.5998L61.7464 28.7031C34.2414 37.9068 19.4924 67.8738 28.7779 95.6234L30.6746 94.9888ZM62.3811 30.5998C88.8214 21.7524 117.514 36.2197 126.455 62.9391L128.351 62.3045C119.066 34.5548 89.2515 19.4995 61.7464 28.7031L62.3811 30.5998Z" fill="white" fill-opacity="0.5" mask="url(#path-3-inside-1_1751_218)"/>
</svg>
