<?xml version="1.0" encoding="utf-8"?>
<!-- Generator: Adobe Illustrator 24.0.3, SVG Export Plug-In . SVG Version: 6.00 Build 0)  -->
<svg version="1.1" id="Слой_1" xmlns="http://www.w3.org/2000/svg" xmlns:xlink="http://www.w3.org/1999/xlink" x="0px" y="0px"
	 viewBox="0 0 170.7 27" style="enable-background:new 0 0 170.7 27;" xml:space="preserve">
<style type="text/css">
	.st0{fill:#FFFFFF;}
</style>
<g>
	<path class="st0" d="M25.7,11.5c2.9-0.3,5.1-1.1,5.8-1.3c1.3-2.3,2.1-4.9,2.2-7.6c-1.7,2.1-3.8,3.9-6.2,5.3c-1.5,0.8-3,1.5-4.7,2
		c-1.2,0.3-2.5,0.6-3.7,0.7c-0.6-0.2-0.7-2.2-0.5-2.7c0-0.1,0-0.2,0-0.4c0.5,0,1,0,1.2,0.1c0-0.9-1-1-1.5-1C18.1,6.2,17.7,6,17.1,6
		c-2.5,0-1.6,2.6-2.6,4.5c-1.2-0.1-2.5-0.4-3.6-0.7c-1.7-0.5-3.2-1.1-4.7-2C3.8,6.5,1.7,4.7,0,2.6c0.1,2.8,0.9,5.4,2.2,7.6
		c0.7,0.3,3,1,5.8,1.3c-1.4,0.3-3.4,0.2-5,0c0.2,0.3,0.4,0.5,0.5,0.7c0.3,0.4,0.7,0.9,1.1,1.3c1.1,0,3.1,0,5.2-0.6
		c-1.1,0.7-2.7,1.3-4.3,1.6c0.6,0.6,1.3,1.1,2,1.5c1.1-0.4,2.7-1.1,4.3-2.2c-0.8,1-2,2-3.3,2.8c0.3,0.2,0.6,0.3,0.9,0.5
		c0.4,0.2,0.9,0.4,1.3,0.6c0.8-0.6,2-1.6,3.1-3.1c-0.5,1.1-1.2,2.4-2.1,3.4c0.9,0.3,1.8,0.5,2.8,0.6c-0.8,1.4-1.7,2.6-2.7,3.8
		c0.5,0.6,1,1.1,1.7,1.6c0.6-1.3,1.3-2.5,2.1-3.6c-0.6,1.7-1.1,3.1-1.3,4.1c0.7,0.4,1.3,0.8,2.1,1c0.1-1.1,0.2-3.6,0.5-5v0
		c0,0,0,0,0,0c0,0,0,0,0,0v0c0.3,1.4,0.4,3.9,0.5,5c0.7-0.3,1.4-0.6,2.1-1c-0.3-1-0.7-2.4-1.3-4.1c0.8,1.1,1.5,2.3,2.1,3.6
		c0.6-0.5,1.2-1,1.7-1.6c-1-1.1-1.9-2.4-2.7-3.8c0.9-0.1,1.9-0.3,2.8-0.6c-0.9-1.1-1.6-2.3-2.1-3.4C21,16,22.2,17,23,17.6
		c0.4-0.2,0.9-0.4,1.3-0.6c0.3-0.2,0.6-0.3,0.9-0.5c-1.3-0.8-2.5-1.8-3.3-2.8c1.6,1.1,3.2,1.8,4.3,2.2c0.7-0.5,1.3-1,2-1.5
		c-1.5-0.3-3.2-0.9-4.3-1.6c2.2,0.6,4.1,0.7,5.2,0.6c0.4-0.4,0.7-0.8,1.1-1.3c0.2-0.2,0.4-0.5,0.5-0.7
		C29.1,11.8,27.1,11.8,25.7,11.5z M17.8,7.1c-0.2,0-0.3-0.1-0.3-0.3c0,0,0-0.1,0-0.1H18c0,0,0,0.1,0,0.1C18,7,17.9,7.1,17.8,7.1z"/>
	<path class="st0" d="M16.9,5c1.1,0,1.5,0.5,1.5,0.5l1-3.3L18,3.7c0,0.7-0.7,0.7-0.7,0.2c0-0.5,0.3-0.6,0.3-1.3s-0.5-1-0.7-2.5
		c-0.2,1.5-0.7,1.8-0.7,2.5s0.3,0.8,0.3,1.3c0,0.5-0.7,0.6-0.7-0.2l-1.4-1.5l1,3.3C15.4,5.5,15.8,4.9,16.9,5z"/>
</g>
<path class="st0" d="M53.2,3.6v11.7H51V5.5H45v9.9h-2.2V3.6H53.2z"/>
<path class="st0" d="M63.6,3.6v1.8h-5.1v3.1h4.9v1.8h-4.9v3.3h5.2v1.8h-7.4V3.6H63.6z"/>
<path class="st0" d="M70.8,3.6c1.1,0,1.9,0.3,2.6,1c0.7,0.6,1,1.5,1,2.5c0,1-0.3,1.8-1,2.5c-0.7,0.6-1.6,0.9-2.6,0.9h-2.1v4.9h-2.2
	V3.6H70.8z M70.2,8.7c0.6,0,1-0.1,1.4-0.4C71.9,8,72.1,7.6,72.1,7c0-1.1-0.7-1.6-2-1.6h-1.5v3.3H70.2z"/>
<path class="st0" d="M80.9,3.6c1,0,1.9,0.3,2.5,0.8c0.7,0.6,1,1.3,1,2.1c0,0.5-0.1,1-0.4,1.4c-0.3,0.4-0.7,0.7-1.2,1v0.1
	c0.8,0.2,1.4,0.5,1.8,1.1c0.4,0.5,0.7,1.2,0.7,1.9c0,0.6-0.2,1.2-0.5,1.7c-0.3,0.5-0.8,0.9-1.3,1.2c-0.6,0.3-1.2,0.4-2,0.4h-4.7V3.6
	H80.9z M80.3,8.5c0.6,0,1-0.1,1.4-0.4c0.3-0.3,0.5-0.7,0.5-1.2c0-0.5-0.2-0.8-0.5-1.1c-0.3-0.3-0.7-0.4-1.2-0.4h-1.6v3.1H80.3z
	 M80.8,13.6c0.7,0,1.3-0.1,1.7-0.4c0.4-0.3,0.6-0.7,0.6-1.3c0-0.5-0.2-0.9-0.6-1.2c-0.4-0.3-0.9-0.4-1.5-0.4h-2.1v3.3H80.8z"/>
<path class="st0" d="M89.9,3.6v4.6h1.8c1.3,0,2.3,0.3,3,1c0.8,0.6,1.1,1.5,1.1,2.6c0,1.1-0.4,1.9-1.1,2.6c-0.7,0.6-1.7,1-3,1h-4.1
	V3.6H89.9z M91.9,13.6c0.5,0,1-0.2,1.3-0.5c0.3-0.3,0.5-0.8,0.5-1.3c0-0.5-0.2-1-0.5-1.3c-0.3-0.3-0.8-0.5-1.3-0.5h-1.9v3.6H91.9z
	 M99.9,3.6v11.7h-2.2V3.6H99.9z"/>
<path class="st0" d="M110.3,3.6v1.8h-5.1v3.1h4.9v1.8h-4.9v3.3h5.2v1.8H103V3.6H110.3z"/>
<path class="st0" d="M124.5,3.6l5.1,11.7h-2.3l-3.8-9l-3.6,9h-2.2l5-11.7H124.5z"/>
<path class="st0" d="M133.9,3.6v8.2l7-8.2h1.2v11.7h-2.2V7.5l-7,8h-1.1V3.6H133.9z"/>
<path class="st0" d="M147.3,3.6v9.8h5.8V3.6h2.2v9.8h1.8v4h-2.2v-2.1h-9.8V3.6H147.3z"/>
<path class="st0" d="M165.8,3.6l5,11.7h-2.3l-1.2-2.9h-5l-1.1,2.9h-2.3l4.7-11.7H165.8z M162.9,10.8h3.6l-1.9-4.6L162.9,10.8z"/>
<path class="st0" d="M42.8,23.1c0-0.3,0.1-0.6,0.2-0.9c0.1-0.3,0.3-0.5,0.5-0.8c0.2-0.2,0.5-0.4,0.8-0.5c0.3-0.1,0.6-0.2,1-0.2
	c0.4,0,0.7,0.1,1,0.2c0.3,0.1,0.6,0.3,0.8,0.5c0.2,0.2,0.4,0.5,0.5,0.8c0.1,0.3,0.2,0.6,0.2,0.9c0,0.3-0.1,0.6-0.2,0.9
	c-0.1,0.3-0.3,0.5-0.5,0.8c-0.2,0.2-0.5,0.4-0.8,0.5c-0.3,0.1-0.6,0.2-1,0.2c-0.2,0-0.5,0-0.7-0.1c-0.2-0.1-0.4-0.1-0.6-0.3
	c-0.2-0.1-0.3-0.2-0.5-0.4c-0.1-0.1-0.3-0.3-0.4-0.5c-0.1-0.2-0.2-0.4-0.2-0.6C42.9,23.5,42.8,23.3,42.8,23.1z M43.5,23.1
	c0,0.3,0,0.5,0.1,0.7c0.1,0.2,0.2,0.4,0.4,0.6c0.2,0.2,0.3,0.3,0.6,0.4c0.2,0.1,0.5,0.1,0.7,0.1c0.3,0,0.5,0,0.7-0.1
	c0.2-0.1,0.4-0.2,0.6-0.4c0.2-0.2,0.3-0.4,0.4-0.6c0.1-0.2,0.1-0.5,0.1-0.7c0-0.3,0-0.5-0.1-0.7c-0.1-0.2-0.2-0.4-0.4-0.6
	c-0.2-0.2-0.3-0.3-0.6-0.4c-0.2-0.1-0.5-0.1-0.7-0.1c-0.3,0-0.5,0-0.7,0.1c-0.2,0.1-0.4,0.2-0.6,0.4c-0.2,0.2-0.3,0.3-0.4,0.6
	C43.6,22.6,43.5,22.8,43.5,23.1z"/>
<path class="st0" d="M49.5,22.3c0.5,0,1,0.1,1.3,0.4c0.3,0.3,0.4,0.7,0.4,1.2c0,0.2,0,0.4-0.1,0.6c-0.1,0.2-0.2,0.4-0.3,0.5
	c-0.1,0.1-0.3,0.2-0.5,0.3c-0.2,0.1-0.4,0.1-0.6,0.1c-0.1,0-0.2,0-0.3,0c-0.1,0-0.2-0.1-0.3-0.1V27h-0.6v-4.7H49.5z M49,22.9v1.9
	c0.2,0.1,0.4,0.1,0.6,0.1c0.1,0,0.3,0,0.4-0.1c0.1-0.1,0.2-0.1,0.3-0.2c0.1-0.1,0.2-0.2,0.2-0.3c0-0.1,0.1-0.3,0.1-0.4
	c0-0.2,0-0.3-0.1-0.4c-0.1-0.1-0.1-0.2-0.2-0.3C50.2,23,50.1,23,50,22.9c-0.1,0-0.2-0.1-0.4-0.1H49z"/>
<path class="st0" d="M52.5,22.9v2.6h-0.6v-3.1h1.9v0.6H52.5z"/>
<path class="st0" d="M55.7,23.5v-0.2c0-0.2,0-0.3-0.1-0.4c-0.1-0.1-0.2-0.1-0.4-0.1c-0.2,0-0.3,0-0.5,0.1c-0.2,0.1-0.3,0.2-0.5,0.4
	v-0.7c0.2-0.3,0.6-0.4,1-0.4c0.2,0,0.3,0,0.4,0.1c0.1,0,0.2,0.1,0.3,0.2c0.1,0.1,0.2,0.2,0.2,0.3c0.1,0.1,0.1,0.3,0.1,0.5v1.6
	c0,0.1,0,0.1,0,0.1c0,0,0,0,0.1,0c0,0,0.1,0,0.1,0c0.1,0,0.1-0.1,0.2-0.1v0.4c-0.1,0-0.1,0.1-0.2,0.1c-0.1,0-0.1,0.1-0.1,0.1
	c0,0-0.1,0-0.1,0c0,0-0.1,0-0.1,0c-0.1,0-0.2,0-0.3-0.1c-0.1,0-0.1-0.1-0.2-0.2c-0.1,0.1-0.3,0.2-0.4,0.2c-0.1,0.1-0.3,0.1-0.4,0.1
	c-0.1,0-0.2,0-0.3-0.1c-0.1,0-0.2-0.1-0.2-0.2c-0.1-0.1-0.1-0.2-0.1-0.2c0-0.1-0.1-0.2-0.1-0.3c0-0.1,0-0.3,0.1-0.4
	c0-0.1,0.1-0.2,0.2-0.3c0.1-0.1,0.2-0.1,0.3-0.2c0.1-0.1,0.3-0.1,0.4-0.2L55.7,23.5z M55.7,23.9c-0.1,0-0.2,0.1-0.4,0.1
	c-0.1,0-0.2,0.1-0.3,0.2c-0.1,0.1-0.2,0.1-0.2,0.2c-0.1,0.1-0.1,0.2-0.1,0.2c0,0.1,0,0.1,0,0.2c0,0.1,0.1,0.1,0.1,0.1
	c0,0,0.1,0.1,0.1,0.1c0.1,0,0.1,0,0.2,0c0.1,0,0.2,0,0.3-0.1c0.1,0,0.2-0.1,0.2-0.2V23.9z"/>
<path class="st0" d="M59.9,22.3v3.1h-0.6v-1.3h-1.5v1.3h-0.6v-3.1h0.6v1.2h1.5v-1.2H59.9z"/>
<path class="st0" d="M62.9,23.4l-1.7,2.1h-0.3v-3.2h0.6v2.1l1.7-2.1h0.3v3.1h-0.6V23.4z"/>
<path class="st0" d="M64.8,24v-0.5c0.2,0,0.3,0,0.4,0c0.1,0,0.2,0,0.3-0.1c0.1,0,0.1-0.1,0.2-0.1c0-0.1,0.1-0.1,0.1-0.2
	c0-0.1-0.1-0.2-0.2-0.3c-0.1-0.1-0.3-0.1-0.5-0.1c-0.2,0-0.4,0-0.5,0.1c-0.2,0.1-0.3,0.1-0.4,0.2v-0.5c0.1,0,0.1-0.1,0.2-0.1
	c0.1,0,0.2-0.1,0.3-0.1c0.1,0,0.2,0,0.3-0.1c0.1,0,0.2,0,0.3,0c0.2,0,0.3,0,0.4,0.1c0.1,0,0.3,0.1,0.4,0.2c0.1,0.1,0.2,0.2,0.3,0.3
	c0.1,0.1,0.1,0.2,0.1,0.3c0,0.2-0.1,0.3-0.2,0.5c-0.1,0.1-0.3,0.2-0.4,0.2c0.1,0,0.2,0,0.2,0.1c0.1,0,0.1,0.1,0.2,0.2
	c0.1,0.1,0.1,0.1,0.2,0.2c0,0.1,0.1,0.2,0.1,0.3c0,0.2,0,0.3-0.1,0.5c-0.1,0.1-0.2,0.2-0.3,0.3c-0.1,0.1-0.3,0.1-0.4,0.2
	c-0.2,0-0.3,0-0.5,0c-0.1,0-0.1,0-0.2,0c-0.1,0-0.2,0-0.3-0.1c-0.1,0-0.2-0.1-0.3-0.1c-0.1,0-0.2-0.1-0.2-0.1v-0.6
	c0.1,0,0.1,0.1,0.2,0.1c0.1,0,0.2,0.1,0.2,0.1c0.1,0,0.2,0.1,0.2,0.1c0.1,0,0.2,0,0.2,0c0.2,0,0.4,0,0.6-0.1
	c0.1-0.1,0.2-0.2,0.2-0.3c0-0.1,0-0.1-0.1-0.2c0-0.1-0.1-0.1-0.2-0.1c-0.1,0-0.1-0.1-0.2-0.1c-0.1,0-0.2,0-0.3,0H64.8z"/>
<path class="st0" d="M68.4,23.5v-0.2c0-0.2,0-0.3-0.1-0.4c-0.1-0.1-0.2-0.1-0.4-0.1c-0.2,0-0.3,0-0.5,0.1c-0.2,0.1-0.3,0.2-0.5,0.4
	v-0.7c0.2-0.3,0.6-0.4,1-0.4c0.2,0,0.3,0,0.4,0.1c0.1,0,0.2,0.1,0.3,0.2c0.1,0.1,0.2,0.2,0.2,0.3c0.1,0.1,0.1,0.3,0.1,0.5v1.6
	c0,0.1,0,0.1,0,0.1c0,0,0,0,0.1,0c0,0,0.1,0,0.1,0c0.1,0,0.1-0.1,0.2-0.1v0.4c-0.1,0-0.1,0.1-0.2,0.1c-0.1,0-0.1,0.1-0.1,0.1
	c0,0-0.1,0-0.1,0c0,0-0.1,0-0.1,0c-0.1,0-0.2,0-0.3-0.1c-0.1,0-0.1-0.1-0.2-0.2c-0.1,0.1-0.3,0.2-0.4,0.2c-0.1,0.1-0.3,0.1-0.4,0.1
	c-0.1,0-0.2,0-0.3-0.1c-0.1,0-0.2-0.1-0.2-0.2C67,25.2,67,25.1,66.9,25c0-0.1-0.1-0.2-0.1-0.3c0-0.1,0-0.3,0.1-0.4
	c0-0.1,0.1-0.2,0.2-0.3c0.1-0.1,0.2-0.1,0.3-0.2c0.1-0.1,0.3-0.1,0.4-0.2L68.4,23.5z M68.4,23.9c-0.1,0-0.2,0.1-0.4,0.1
	c-0.1,0-0.2,0.1-0.3,0.2c-0.1,0.1-0.2,0.1-0.2,0.2c-0.1,0.1-0.1,0.2-0.1,0.2c0,0.1,0,0.1,0,0.2c0,0.1,0.1,0.1,0.1,0.1
	c0,0,0.1,0.1,0.1,0.1c0.1,0,0.1,0,0.2,0c0.1,0,0.2,0,0.3-0.1c0.1,0,0.2-0.1,0.2-0.2V23.9z"/>
<path class="st0" d="M70,25.4v-3.1h0.6v2.6h1.5v-2.6h0.6v2.6h0.5v1.3h-0.6v-0.7H70z"/>
<path class="st0" d="M75.8,23.4l-1.7,2.1h-0.3v-3.2h0.6v2.1l1.7-2.1h0.3v3.1h-0.6V23.4z"/>
<path class="st0" d="M77.4,24.7c0.1-0.1,0.2-0.2,0.3-0.3c0.1-0.1,0.2-0.2,0.3-0.2c-0.1,0-0.2-0.1-0.3-0.1c-0.1-0.1-0.1-0.1-0.2-0.2
	c-0.1-0.1-0.1-0.2-0.1-0.2c0-0.1,0-0.2,0-0.3c0-0.1,0-0.3,0.1-0.4c0.1-0.1,0.2-0.2,0.3-0.3c0.1-0.1,0.2-0.1,0.4-0.2
	c0.1,0,0.3-0.1,0.4-0.1h1.1v3.1H79v-1.1h-0.2c-0.1,0-0.2,0-0.2,0c-0.1,0-0.1,0-0.2,0.1c-0.1,0-0.1,0.1-0.2,0.2
	c-0.1,0.1-0.1,0.1-0.2,0.2l-0.4,0.6H77L77.4,24.7z M79,23.8v-0.9h-0.5c-0.2,0-0.3,0-0.4,0.1c-0.1,0.1-0.1,0.2-0.1,0.3
	c0,0.1,0,0.1,0,0.2c0,0.1,0.1,0.1,0.1,0.2c0,0,0.1,0.1,0.2,0.1c0.1,0,0.2,0,0.3,0H79z"/>
<path class="st0" d="M83,22.3l0.9,1.9l0.9-1.9h0.6l0.2,3.1H85l-0.2-2.1l-0.9,2.1l-1-2.1l-0.2,2.1h-0.6l0.2-3.1H83z"/>
<path class="st0" d="M86.8,24c0.1,0.6,0.4,0.9,1,0.9c0.2,0,0.4,0,0.5-0.1c0.2-0.1,0.3-0.2,0.5-0.3v0.6c-0.1,0.1-0.2,0.1-0.3,0.2
	c-0.1,0-0.2,0.1-0.3,0.1c-0.1,0-0.2,0.1-0.3,0.1c-0.1,0-0.2,0-0.4,0c-0.2,0-0.4,0-0.6-0.1c-0.2-0.1-0.3-0.2-0.5-0.4
	c-0.1-0.2-0.2-0.3-0.3-0.5c-0.1-0.2-0.1-0.4-0.1-0.6c0-0.2,0-0.5,0.1-0.6c0.1-0.2,0.2-0.4,0.3-0.5c0.1-0.1,0.3-0.2,0.4-0.3
	c0.2-0.1,0.4-0.1,0.6-0.1c0.2,0,0.4,0,0.5,0.1c0.2,0.1,0.3,0.2,0.4,0.3c0.1,0.1,0.2,0.3,0.3,0.5c0.1,0.2,0.1,0.5,0.1,0.7H86.8z
	 M88.3,23.5c0-0.2-0.1-0.4-0.2-0.6c-0.1-0.1-0.3-0.2-0.5-0.2c-0.2,0-0.4,0.1-0.5,0.2c-0.1,0.1-0.2,0.3-0.3,0.6H88.3z"/>
<path class="st0" d="M90.6,22.3c0.5,0,1,0.1,1.3,0.4c0.3,0.3,0.4,0.7,0.4,1.2c0,0.2,0,0.4-0.1,0.6c-0.1,0.2-0.2,0.4-0.3,0.5
	c-0.1,0.1-0.3,0.2-0.5,0.3c-0.2,0.1-0.4,0.1-0.6,0.1c-0.1,0-0.2,0-0.3,0c-0.1,0-0.2-0.1-0.3-0.1V27h-0.6v-4.7H90.6z M90.2,22.9v1.9
	c0.2,0.1,0.4,0.1,0.6,0.1c0.1,0,0.3,0,0.4-0.1c0.1-0.1,0.2-0.1,0.3-0.2c0.1-0.1,0.2-0.2,0.2-0.3c0-0.1,0.1-0.3,0.1-0.4
	c0-0.2,0-0.3-0.1-0.4c-0.1-0.1-0.1-0.2-0.2-0.3c-0.1-0.1-0.2-0.2-0.3-0.2c-0.1,0-0.2-0.1-0.4-0.1H90.2z"/>
<path class="st0" d="M94.4,22.2c0.2,0,0.5,0,0.6,0.1c0.2,0.1,0.4,0.2,0.5,0.3c0.1,0.1,0.3,0.3,0.3,0.5c0.1,0.2,0.1,0.4,0.1,0.6
	c0,0.2,0,0.5-0.1,0.7c-0.1,0.2-0.2,0.4-0.3,0.5c-0.1,0.1-0.3,0.3-0.5,0.3c-0.2,0.1-0.4,0.1-0.7,0.1c-0.2,0-0.4,0-0.6-0.1
	c-0.2-0.1-0.4-0.2-0.5-0.3c-0.1-0.1-0.2-0.3-0.3-0.5c-0.1-0.2-0.1-0.4-0.1-0.7c0-0.2,0-0.4,0.1-0.6c0.1-0.2,0.2-0.4,0.3-0.5
	c0.1-0.1,0.3-0.3,0.5-0.3C94,22.3,94.2,22.2,94.4,22.2z M94.4,22.8c-0.1,0-0.3,0-0.4,0.1c-0.1,0.1-0.2,0.1-0.3,0.2
	c-0.1,0.1-0.2,0.2-0.2,0.3c0,0.1-0.1,0.3-0.1,0.4c0,0.2,0,0.3,0.1,0.4c0,0.1,0.1,0.3,0.2,0.3c0.1,0.1,0.2,0.2,0.3,0.2
	c0.1,0.1,0.2,0.1,0.4,0.1c0.2,0,0.3,0,0.4-0.1c0.1-0.1,0.2-0.1,0.3-0.2c0.1-0.1,0.2-0.2,0.2-0.3c0-0.1,0.1-0.3,0.1-0.5
	c0-0.2,0-0.3-0.1-0.4c-0.1-0.1-0.1-0.2-0.2-0.3c-0.1-0.1-0.2-0.2-0.3-0.2C94.7,22.8,94.5,22.8,94.4,22.8z"/>
<path class="st0" d="M99.4,22.3v3.1h-0.6v-2.6h-1.5v2.6h-0.6v-3.1H99.4z"/>
<path class="st0" d="M101.3,22.3c0.5,0,1,0.1,1.3,0.4c0.3,0.3,0.4,0.7,0.4,1.2c0,0.2,0,0.4-0.1,0.6c-0.1,0.2-0.2,0.4-0.3,0.5
	c-0.1,0.1-0.3,0.2-0.5,0.3c-0.2,0.1-0.4,0.1-0.6,0.1c-0.1,0-0.2,0-0.3,0c-0.1,0-0.2-0.1-0.3-0.1V27h-0.6v-4.7H101.3z M100.8,22.9
	v1.9c0.2,0.1,0.4,0.1,0.6,0.1c0.1,0,0.3,0,0.4-0.1c0.1-0.1,0.2-0.1,0.3-0.2c0.1-0.1,0.2-0.2,0.2-0.3c0-0.1,0.1-0.3,0.1-0.4
	c0-0.2,0-0.3-0.1-0.4c-0.1-0.1-0.1-0.2-0.2-0.3c-0.1-0.1-0.2-0.2-0.3-0.2c-0.1,0-0.2-0.1-0.4-0.1H100.8z"/>
<path class="st0" d="M105.7,23.4l-1.7,2.1h-0.3v-3.2h0.6v2.1l1.7-2.1h0.3v3.1h-0.6V23.4z"/>
<path class="st0" d="M107.3,24.7c0.1-0.1,0.2-0.2,0.3-0.3c0.1-0.1,0.2-0.2,0.3-0.2c-0.1,0-0.2-0.1-0.3-0.1c-0.1-0.1-0.1-0.1-0.2-0.2
	c-0.1-0.1-0.1-0.2-0.1-0.2c0-0.1,0-0.2,0-0.3c0-0.1,0-0.3,0.1-0.4c0.1-0.1,0.2-0.2,0.3-0.3c0.1-0.1,0.2-0.1,0.4-0.2
	c0.1,0,0.3-0.1,0.4-0.1h1.1v3.1h-0.6v-1.1h-0.2c-0.1,0-0.2,0-0.2,0c-0.1,0-0.1,0-0.2,0.1c-0.1,0-0.1,0.1-0.2,0.2
	c-0.1,0.1-0.1,0.1-0.2,0.2l-0.4,0.6h-0.7L107.3,24.7z M108.9,23.8v-0.9h-0.5c-0.2,0-0.3,0-0.4,0.1c-0.1,0.1-0.2,0.2-0.2,0.3
	c0,0.1,0,0.1,0,0.2c0,0.1,0.1,0.1,0.1,0.2c0,0,0.1,0.1,0.2,0.1c0.1,0,0.2,0,0.3,0H108.9z"/>
<path class="st0" d="M111.7,22.9v2.6h-0.6v-2.6H110v-0.6h2.7v0.6H111.7z"/>
<path class="st0" d="M115.4,23.4l-1.7,2.1h-0.3v-3.2h0.6v2.1l1.7-2.1h0.3v3.1h-0.6V23.4z"/>
<path class="st0" d="M118.9,23.4l-1.7,2.1h-0.3v-3.2h0.6v2.1l1.7-2.1h0.3v3.1h-0.6V23.4z M117.7,21c0,0.1,0.1,0.2,0.2,0.3
	c0.1,0.1,0.2,0.1,0.3,0.1c0.1,0,0.2,0,0.3-0.1c0.1-0.1,0.1-0.2,0.2-0.3h0.5c-0.1,0.3-0.2,0.5-0.3,0.7c-0.2,0.2-0.4,0.2-0.6,0.2
	c-0.3,0-0.5-0.1-0.6-0.2c-0.2-0.2-0.3-0.4-0.3-0.7H117.7z"/>
</svg>
