<svg width="11" height="25" viewBox="0 0 11 25" fill="none" xmlns="http://www.w3.org/2000/svg">
<path d="M5.5 0C5.1537 0 4.88889 0.257937 4.88889 0.595238V9.56334C4.1963 8.92842 3.25926 8.53175 2.24074 8.53175H0.611111C0.264815 8.53175 0 8.78968 0 9.12698V10.7143C0 12.7976 1.73148 14.4841 3.87037 14.4841H4.88889V18.0556H3.87037C2.4037 18.0556 1.22222 16.9048 1.22222 15.4762V14.881C1.22222 14.5437 0.957407 14.2857 0.611111 14.2857C0.264815 14.2857 0 14.5437 0 14.881V15.4762C0 17.5595 1.73148 19.246 3.87037 19.246H4.88889V22.8175H3.87037C2.4037 22.8175 1.22222 21.6667 1.22222 20.2381V19.8413C1.22222 19.504 0.957407 19.246 0.611111 19.246C0.264815 19.246 0 19.504 0 19.8413V20.2381C0 22.3214 1.73148 24.0079 3.87037 24.0079H4.88889V24.4048C4.88889 24.7421 5.1537 25 5.5 25C5.8463 25 6.11111 24.7421 6.11111 24.4048V24.0079H7.12963C9.26852 24.0079 11 22.3214 11 20.2381V19.6429C11 19.3056 10.7352 19.0476 10.3889 19.0476C10.0426 19.0476 9.77778 19.3056 9.77778 19.6429V20.2381C9.77778 21.6667 8.5963 22.8175 7.12963 22.8175H6.11111V19.246H7.12963C9.26852 19.246 11 17.5595 11 15.4762V14.881C11 14.5437 10.7352 14.2857 10.3889 14.2857C10.0426 14.2857 9.77778 14.5437 9.77778 14.881V15.4762C9.77778 16.9048 8.5963 18.0556 7.12963 18.0556H6.11111V14.4841H7.12963C9.26852 14.4841 11 12.7976 11 10.7143V9.12698C11 8.78968 10.7352 8.53175 10.3889 8.53175H8.75926C7.74074 8.53175 6.8037 8.92842 6.11111 9.56334V0.595238C6.11111 0.257937 5.8463 0 5.5 0ZM3.05556 1.98413C2.70926 1.98413 2.44444 2.24206 2.44444 2.57937V6.54762C2.44444 6.88492 2.70926 7.14286 3.05556 7.14286C3.40185 7.14286 3.66667 6.88492 3.66667 6.54762V2.57937C3.66667 2.24206 3.40185 1.98413 3.05556 1.98413ZM7.94444 1.98413C7.59815 1.98413 7.33333 2.24206 7.33333 2.57937V6.54762C7.33333 6.88492 7.59815 7.14286 7.94444 7.14286C8.29074 7.14286 8.55556 6.88492 8.55556 6.54762V2.57937C8.55556 2.24206 8.29074 1.98413 7.94444 1.98413ZM1.22222 9.72222H2.24074C3.70741 9.72222 4.88889 10.873 4.88889 12.3016V13.2937H3.87037C2.4037 13.2937 1.22222 12.1429 1.22222 10.7143V9.72222ZM8.75926 9.72222H9.77778V10.7143C9.77778 12.1429 8.5963 13.2937 7.12963 13.2937H6.11111V12.3016C6.11111 10.873 7.29259 9.72222 8.75926 9.72222Z" fill="#FF8447"/>
</svg>
