<svg version="1.1" id="Слой_1" xmlns="http://www.w3.org/2000/svg" xmlns:xlink="http://www.w3.org/1999/xlink" x="0px" y="0px"
	 viewBox="0 0 119.3 90.3" style="enable-background:new 0 0 119.3 90.3;" xml:space="preserve">
<style type="text/css">
	.st0{fill:#FFFFFF;}
</style>
<g>
	<path class="st0" d="M91,40.8c10.1-1,18.1-3.8,20.6-4.7c4.5-8,7.3-17.2,7.7-27c-6,7.5-13.5,13.8-21.9,18.6c-5.2,3-10.8,5.3-16.7,7
		c-4.3,1.2-8.7,2.1-13.3,2.5c-2.1-0.7-2.3-7.9-1.8-9.5c0.1-0.3,0.2-0.8,0.1-1.3c1.6,0,3.5,0,4.1,0.3c-0.1-3.1-3.6-3.6-5.2-3.7
		c-0.8-1-2.1-1.8-4.1-1.8c-8.9,0-5.5,9.2-9.2,15.9c-4.4-0.5-8.7-1.3-12.9-2.5c-5.9-1.7-11.5-4-16.7-7C13.5,22.9,6.1,16.6,0,9.1
		c0.4,9.8,3.1,19,7.6,27c2.5,0.9,10.5,3.7,20.7,4.7c-5,1.1-11.9,0.8-17.8-0.2c0.6,0.9,1.2,1.8,1.9,2.6c1.2,1.5,2.5,3,3.8,4.4
		c4,0.1,10.8-0.1,18.5-2.3c-3.9,2.5-9.7,4.5-15.1,5.6c2.2,2,4.5,3.8,6.9,5.4c3.8-1.3,9.5-3.8,15.2-7.8c-2.7,3.5-7.2,7.1-11.7,9.9
		c1.1,0.6,2.2,1.2,3.3,1.8c1.5,0.7,3.1,1.4,4.6,2c2.9-2.2,6.9-5.8,11.1-10.8c-1.7,4-4.3,8.4-7.4,12.1c3.2,1,6.5,1.8,9.9,2.2
		c-2.7,4.8-5.9,9.3-9.6,13.4c1.7,2,3.7,3.9,5.9,5.5c2.3-4.5,4.7-8.9,7.5-12.6c-2.3,5.9-3.8,10.9-4.8,14.5c2.3,1.5,4.8,2.7,7.4,3.6
		c0.2-3.9,0.8-12.6,1.7-17.6v-0.1c0,0,0,0,0,0.1c0,0,0,0,0-0.1v0.1c0.9,5.1,1.5,13.7,1.7,17.6c2.6-0.9,5.1-2.2,7.4-3.6
		c-1-3.6-2.5-8.6-4.8-14.5c2.8,3.7,5.2,8.1,7.5,12.6c2.2-1.7,4.2-3.6,6-5.7c-3.6-4.1-6.8-8.5-9.5-13.3c3.3-0.5,6.6-1.2,9.7-2.2
		c-3.1-3.7-5.7-8.1-7.4-12.1c4.1,5,8.2,8.6,11.1,10.8c1.6-0.6,3.1-1.3,4.7-2c1.1-0.6,2.2-1.2,3.3-1.8c-4.5-2.8-9-6.5-11.7-9.9
		c5.7,4,11.3,6.4,15.2,7.8c2.4-1.6,4.7-3.4,6.9-5.4c-5.4-1.2-11.2-3.2-15.1-5.6c7.7,2.2,14.5,2.4,18.5,2.3c1.3-1.4,2.6-2.9,3.8-4.5
		c0.7-0.8,1.3-1.7,1.9-2.6C102.9,41.6,96,41.8,91,40.8z M62.8,25.2c-0.6,0-1-0.5-1-1c0-0.1,0-0.2,0.1-0.4h1.9c0,0.1,0.1,0.2,0.1,0.4
		C63.9,24.8,63.4,25.2,62.8,25.2z"/>
	<path class="st0" d="M59.8,17.6c4-0.1,5.4,1.8,5.4,1.8l3.5-11.8l-4.9,5.3c0,2.6-2.4,2.4-2.4,0.5s1.1-2.2,1.1-4.7
		c0-2.5-1.8-3.6-2.6-8.8c-0.8,5.2-2.6,6.4-2.6,8.8c0,2.5,1.1,2.8,1.1,4.7s-2.4,2.1-2.4-0.5l-4.9-5.3l3.5,11.8
		C54.4,19.4,55.8,17.5,59.8,17.6z"/>
</g>
</svg>
