<svg width="0" height="0" class="hidden">
  <symbol fill='currentColor' xmlns="http://www.w3.org/2000/svg" viewBox="0 0 29.2 33.8" id="play">
    <path d="M29.2 16.9L0 33.8V0l29.2 16.9z"></path>
  </symbol>
  <symbol fill='currentColor' xmlns="http://www.w3.org/2000/svg" viewBox="0 0 15 15" id="phone">
    <path d="M3 6.5c1.2 2.4 3.1 4.3 5.5 5.5l1.8-1.8c.2-.2.6-.3.8-.2.9.3 1.9.5 3 .5.5 0 .8.4.8.8v2.9c0 .5-.4.8-.8.8C6.3 15 0 8.7 0 .8 0 .4.4 0 .8 0h2.9c.5 0 .8.4.8.8 0 1 .2 2 .5 3 .1.3 0 .6-.2.8L3 6.5z"></path>
  </symbol>
</svg>