<svg width="0" height="0" class="hidden">
  <symbol fill='currentColor' xmlns="http://www.w3.org/2000/svg" viewBox="0 0 9.8 16.8" id="facebook">
    <path d="M6.4 16.8V9.2h2.9l.4-3H6.4v-2c0-.9.3-1.5 1.7-1.5h1.8V.1C9.5.1 8.4 0 7.2 0 4.7 0 2.9 1.4 2.9 4v2.2H0v3h2.9v7.7h3.5z"></path>
  </symbol>
  <symbol fill='currentColor' xmlns="http://www.w3.org/2000/svg" viewBox="0 0 20.4 11.5" id="vk">
    <path d="M17.5 7.3c.7.7 1.4 1.3 2 2 .3.3.5.7.7 1 .3.5 0 1.1-.5 1.2h-3c-.8.1-1.4-.2-1.9-.8-.4-.4-.8-.9-1.2-1.3l-.5-.5c-.4-.3-.8-.2-1 .2-.2.4-.3.9-.3 1.4 0 .7-.2.9-.9.9-1.5.1-2.9-.2-4.2-.9-1.1-.6-2-1.5-2.8-2.6-1.6-2-2.7-4.3-3.8-6.7C-.1.7 0 .4.6.4h2.9c.4 0 .7.2.8.6.5 1.3 1.2 2.5 2 3.7.2.3.4.6.7.8.3.2.6.2.8-.2.1-.3.2-.6.2-.8.1-.9.1-1.8 0-2.7-.1-.6-.4-.9-1-1-.3-.1-.3-.2-.1-.3.2-.3.4-.5.9-.5h3.4c.5.1.6.3.7.9v3.7c0 .2.1.8.5 1 .3.1.5-.1.7-.3.8-.9 1.4-1.9 1.9-2.9.2-.5.4-.9.6-1.4.1-.4.4-.5.8-.5h3.5c.5.1.7.3.5.9-.4.7-.9 1.4-1.4 2.1-.5.7-1.1 1.5-1.6 2.2-.5.7-.5 1 .1 1.6z"></path>
  </symbol>
  <symbol fill='currentColor' xmlns="http://www.w3.org/2000/svg" viewBox="0 0 19 13" id="youtube">
    <path d="M15.5 0h-12c-1 0-1.8.3-2.5.9-.6.6-1 1.4-1 2.3v6.6c0 .8.4 1.7 1 2.2.7.7 1.5 1 2.5 1h12.1c.9 0 1.8-.3 2.4-.9.6-.6 1-1.4 1-2.2V3.2c0-.8-.4-1.7-1-2.2-.7-.7-1.5-1-2.5-1zm-2 6.6L7.4 9.5h-.2l-.1-.1V3.5l.1-.1h.2l6.1 2.9.1.1v.1s0 .1-.1.1z"></path>
  </symbol>
  <symbol fill='currentColor' xmlns="http://www.w3.org/2000/svg" viewBox="0 0 14.9 13.3" id="insta">
    <path d="M9.7 0H5.2C3.9 0 2.5.5 1.5 1.4.6 2.2 0 3.4 0 4.7v4c0 1.2.6 2.4 1.5 3.3 1 .9 2.3 1.4 3.7 1.4h4.5c1.4 0 2.7-.5 3.7-1.4s1.5-2.1 1.5-3.3v-4c0-1.2-.6-2.4-1.5-3.3C12.4.5 11.1 0 9.7 0zM7.5 9.8c-.7 0-1.4-.2-1.9-.5-.6-.4-1.1-.9-1.3-1.5-.3-.5-.4-1.1-.2-1.7.1-.6.5-1.2 1-1.6.4-.5 1-.8 1.7-.9.7-.1 1.4-.1 2 .2.6.2 1.2.6 1.6 1.1.3.5.6 1.1.6 1.8 0 .8-.4 1.6-1 2.2-.7.5-1.6.9-2.5.9zm4.4-6.1s0 .1 0 0c-.1.1-.2.1-.2.1h-.4s-.1 0-.1-.1c0 0-.1 0-.1-.1-.1-.1-.2-.3-.2-.4V3s0-.1.1-.1c0 .1 0 0 0 0s.1 0 .1-.1c0 0 .1 0 .1-.1h.4c.1 0 .2.1.3.1.1.1.1.2.1.2s0 .1.1.1v.4c-.1.1-.1.2-.2.2zm-4.4.7c-.5 0-1 .1-1.4.4-.4.2-.8.6-1 1s-.2.9-.1 1.3.3.8.7 1.2c.3.3.8.5 1.3.6.5.1 1 0 1.5-.1.5-.2.9-.5 1.1-.8.2-.5.4-.9.4-1.3 0-.6-.3-1.2-.7-1.6-.5-.5-1.2-.7-1.8-.7zm-.3 1.5c-.2 0-.4.1-.5.3-.1.1-.2.3-.2.5 0 .1-.1.2-.1.3-.1 0-.2.1-.3.1-.2 0-.3-.1-.4-.1-.1-.1-.1-.2-.1-.3 0-.3.1-.7.3-1 .2-.3.5-.5.9-.6h.4c.1 0 .2.1.2.2v.3c0 .2-.1.2-.2.3z"></path>
  </symbol>
</svg>